<!DOCTYPE svg PUBLIC "-//W3C//DTD SVG 1.1//EN" "http://www.w3.org/Graphics/SVG/1.1/DTD/svg11.dtd">

<!-- Uploaded to: SVG Repo, www.svgrepo.com, Transformed by: SVG Repo Mixer Tools -->
<svg width="800px" height="800px" viewBox="0 0 192 192" id="Layer_1" version="1.1" xml:space="preserve" xmlns="http://www.w3.org/2000/svg" xmlns:xlink="http://www.w3.org/1999/xlink" fill="#e6c200">

<g id="SVGRepo_bgCarrier" stroke-width="0"/>

<g id="SVGRepo_iconCarrier"> <style type="text/css"> .st0{fill:#E0E0E0;} .st1{fill:#FFFFFF;fill-opacity:0.2;} .st2{fill:#212121;fill-opacity:0.1;} .st3{fill:#616161;} .st4{fill:#FFFFFF;fill-opacity:0.1;} .st5{fill:#212121;fill-opacity:0.2;} .st6{fill:url(#SVGID_1_);} .st7{clip-path:url(#SVGID_3_);} .st8{fill:none;} .st9{clip-path:url(#SVGID_5_);} .st10{clip-path:url(#SVGID_7_);} .st11{fill:none;stroke:#000000;stroke-width:0.0019200000000000003;stroke-miterlimit:10;} .st12{clip-path:url(#SVGID_9_);} .st13{opacity:0.4;} .st14{clip-path:url(#SVGID_11_);} .st15{clip-path:url(#SVGID_13_);} .st16{clip-path:url(#SVGID_15_);} .st17{clip-path:url(#SVGID_17_);} .st18{clip-path:url(#SVGID_19_);} .st19{clip-path:url(#SVGID_21_);} .st20{fill:#DB4437;fill-opacity:0.4;} .st21{fill:url(#SVGID_22_);} .st22{clip-path:url(#SVGID_24_);} .st23{clip-path:url(#SVGID_26_);} .st24{clip-path:url(#SVGID_27_);} .st25{clip-path:url(#SVGID_29_);} .st26{clip-path:url(#SVGID_30_);} .st27{clip-path:url(#SVGID_31_);} .st28{clip-path:url(#SVGID_32_);} .st29{clip-path:url(#SVGID_33_);} .st30{clip-path:url(#SVGID_34_);} .st31{clip-path:url(#SVGID_36_);} .st32{fill:url(#SVGID_37_);} .st33{clip-path:url(#SVGID_39_);} .st34{clip-path:url(#SVGID_41_);} .st35{clip-path:url(#SVGID_42_);} .st36{clip-path:url(#SVGID_44_);} .st37{clip-path:url(#SVGID_45_);} .st38{clip-path:url(#SVGID_46_);} .st39{clip-path:url(#SVGID_47_);} .st40{clip-path:url(#SVGID_48_);} .st41{clip-path:url(#SVGID_49_);} .st42{clip-path:url(#SVGID_51_);} .st43{fill:url(#SVGID_52_);} .st44{clip-path:url(#SVGID_54_);} .st45{clip-path:url(#SVGID_56_);} .st46{clip-path:url(#SVGID_57_);} .st47{clip-path:url(#SVGID_59_);} .st48{clip-path:url(#SVGID_60_);} .st49{clip-path:url(#SVGID_61_);} .st50{clip-path:url(#SVGID_62_);} .st51{clip-path:url(#SVGID_63_);} .st52{clip-path:url(#SVGID_64_);} .st53{clip-path:url(#SVGID_66_);} .st54{fill:url(#SVGID_67_);} .st55{clip-path:url(#SVGID_69_);} .st56{clip-path:url(#SVGID_71_);} .st57{clip-path:url(#SVGID_72_);} .st58{clip-path:url(#SVGID_74_);} .st59{clip-path:url(#SVGID_75_);} .st60{clip-path:url(#SVGID_76_);} .st61{clip-path:url(#SVGID_77_);} .st62{clip-path:url(#SVGID_78_);} .st63{clip-path:url(#SVGID_79_);} .st64{clip-path:url(#SVGID_81_);} .st65{fill:url(#SVGID_82_);} .st66{clip-path:url(#SVGID_84_);} .st67{clip-path:url(#SVGID_86_);} .st68{clip-path:url(#SVGID_87_);} .st69{clip-path:url(#SVGID_89_);} .st70{clip-path:url(#SVGID_90_);} .st71{clip-path:url(#SVGID_91_);} .st72{clip-path:url(#SVGID_92_);} .st73{clip-path:url(#SVGID_93_);} .st74{clip-path:url(#SVGID_94_);} .st75{clip-path:url(#SVGID_96_);} .st76{fill:url(#SVGID_97_);} .st77{clip-path:url(#SVGID_99_);} .st78{clip-path:url(#SVGID_101_);} .st79{clip-path:url(#SVGID_102_);} .st80{clip-path:url(#SVGID_104_);} .st81{clip-path:url(#SVGID_105_);} .st82{clip-path:url(#SVGID_106_);} .st83{clip-path:url(#SVGID_107_);} .st84{clip-path:url(#SVGID_108_);} .st85{clip-path:url(#SVGID_109_);} .st86{clip-path:url(#SVGID_111_);} .st87{fill:url(#SVGID_112_);} .st88{clip-path:url(#SVGID_114_);} .st89{clip-path:url(#SVGID_116_);} .st90{clip-path:url(#SVGID_117_);} .st91{clip-path:url(#SVGID_119_);} .st92{clip-path:url(#SVGID_120_);} .st93{clip-path:url(#SVGID_121_);} .st94{clip-path:url(#SVGID_122_);} .st95{clip-path:url(#SVGID_123_);} .st96{clip-path:url(#SVGID_124_);} .st97{clip-path:url(#SVGID_126_);} .st98{fill:url(#SVGID_127_);} .st99{clip-path:url(#SVGID_129_);} .st100{clip-path:url(#SVGID_131_);} .st101{clip-path:url(#SVGID_132_);} .st102{clip-path:url(#SVGID_134_);} .st103{clip-path:url(#SVGID_135_);} .st104{clip-path:url(#SVGID_136_);} .st105{clip-path:url(#SVGID_137_);} .st106{clip-path:url(#SVGID_138_);} .st107{clip-path:url(#SVGID_139_);} .st108{clip-path:url(#SVGID_141_);} .st109{fill:url(#SVGID_142_);} .st110{clip-path:url(#SVGID_144_);} .st111{clip-path:url(#SVGID_146_);} .st112{clip-path:url(#SVGID_147_);} .st113{clip-path:url(#SVGID_149_);} .st114{clip-path:url(#SVGID_150_);} .st115{clip-path:url(#SVGID_151_);} .st116{clip-path:url(#SVGID_152_);} .st117{clip-path:url(#SVGID_153_);} .st118{clip-path:url(#SVGID_154_);} .st119{clip-path:url(#SVGID_156_);} .st120{fill:url(#SVGID_157_);} .st121{clip-path:url(#SVGID_159_);} .st122{clip-path:url(#SVGID_161_);} .st123{clip-path:url(#SVGID_162_);} .st124{clip-path:url(#SVGID_164_);} .st125{clip-path:url(#SVGID_165_);} .st126{clip-path:url(#SVGID_166_);} .st127{clip-path:url(#SVGID_167_);} .st128{clip-path:url(#SVGID_168_);} .st129{clip-path:url(#SVGID_169_);} .st130{clip-path:url(#SVGID_171_);} .st131{fill:url(#SVGID_172_);} .st132{clip-path:url(#SVGID_174_);} .st133{clip-path:url(#SVGID_176_);} .st134{clip-path:url(#SVGID_177_);} .st135{clip-path:url(#SVGID_179_);} .st136{clip-path:url(#SVGID_180_);} .st137{clip-path:url(#SVGID_181_);} .st138{clip-path:url(#SVGID_182_);} .st139{clip-path:url(#SVGID_183_);} .st140{clip-path:url(#SVGID_184_);} .st141{clip-path:url(#SVGID_186_);} .st142{fill:url(#SVGID_187_);} .st143{clip-path:url(#SVGID_189_);} .st144{clip-path:url(#SVGID_191_);} .st145{clip-path:url(#SVGID_192_);} .st146{clip-path:url(#SVGID_194_);} .st147{clip-path:url(#SVGID_195_);} .st148{clip-path:url(#SVGID_196_);} .st149{clip-path:url(#SVGID_197_);} .st150{clip-path:url(#SVGID_198_);} .st151{clip-path:url(#SVGID_199_);} .st152{clip-path:url(#SVGID_201_);} .st153{fill:url(#SVGID_202_);} .st154{clip-path:url(#SVGID_204_);} .st155{clip-path:url(#SVGID_206_);} .st156{clip-path:url(#SVGID_207_);} .st157{clip-path:url(#SVGID_209_);} .st158{clip-path:url(#SVGID_210_);} .st159{clip-path:url(#SVGID_211_);} .st160{clip-path:url(#SVGID_212_);} .st161{clip-path:url(#SVGID_213_);} .st162{clip-path:url(#SVGID_214_);} .st163{clip-path:url(#SVGID_216_);} .st164{fill:url(#SVGID_217_);} .st165{clip-path:url(#SVGID_219_);} .st166{clip-path:url(#SVGID_221_);} .st167{clip-path:url(#SVGID_222_);} .st168{clip-path:url(#SVGID_224_);} .st169{clip-path:url(#SVGID_225_);} .st170{clip-path:url(#SVGID_226_);} .st171{clip-path:url(#SVGID_227_);} .st172{clip-path:url(#SVGID_228_);} .st173{clip-path:url(#SVGID_229_);} .st174{clip-path:url(#SVGID_231_);} .st175{fill:url(#SVGID_232_);} .st176{clip-path:url(#SVGID_234_);} .st177{clip-path:url(#SVGID_236_);} .st178{clip-path:url(#SVGID_237_);} .st179{clip-path:url(#SVGID_239_);} .st180{clip-path:url(#SVGID_240_);} .st181{clip-path:url(#SVGID_241_);} .st182{clip-path:url(#SVGID_242_);} .st183{clip-path:url(#SVGID_243_);} .st184{clip-path:url(#SVGID_244_);} .st185{clip-path:url(#SVGID_246_);} .st186{fill:url(#SVGID_247_);} .st187{clip-path:url(#SVGID_249_);} .st188{clip-path:url(#SVGID_251_);} .st189{clip-path:url(#SVGID_252_);} .st190{clip-path:url(#SVGID_254_);} .st191{clip-path:url(#SVGID_255_);} .st192{clip-path:url(#SVGID_256_);} .st193{clip-path:url(#SVGID_257_);} .st194{clip-path:url(#SVGID_258_);} .st195{clip-path:url(#SVGID_259_);} .st196{clip-path:url(#SVGID_261_);} .st197{fill:url(#SVGID_262_);} .st198{clip-path:url(#SVGID_264_);} .st199{clip-path:url(#SVGID_266_);} .st200{clip-path:url(#SVGID_267_);} .st201{clip-path:url(#SVGID_269_);} .st202{clip-path:url(#SVGID_270_);} .st203{clip-path:url(#SVGID_271_);} .st204{clip-path:url(#SVGID_272_);} .st205{clip-path:url(#SVGID_273_);} .st206{clip-path:url(#SVGID_274_);} .st207{clip-path:url(#SVGID_276_);} .st208{fill:url(#SVGID_277_);} .st209{clip-path:url(#SVGID_279_);} .st210{clip-path:url(#SVGID_281_);} .st211{clip-path:url(#SVGID_282_);} .st212{clip-path:url(#SVGID_284_);} .st213{clip-path:url(#SVGID_285_);} .st214{clip-path:url(#SVGID_286_);} .st215{clip-path:url(#SVGID_287_);} .st216{clip-path:url(#SVGID_288_);} .st217{clip-path:url(#SVGID_289_);} .st218{clip-path:url(#SVGID_291_);} .st219{fill:url(#SVGID_292_);} .st220{clip-path:url(#SVGID_294_);} .st221{clip-path:url(#SVGID_296_);} .st222{clip-path:url(#SVGID_297_);} .st223{clip-path:url(#SVGID_299_);} .st224{clip-path:url(#SVGID_300_);} .st225{clip-path:url(#SVGID_301_);} .st226{clip-path:url(#SVGID_302_);} .st227{clip-path:url(#SVGID_303_);} .st228{clip-path:url(#SVGID_304_);} .st229{clip-path:url(#SVGID_306_);} .st230{fill:url(#SVGID_307_);} .st231{clip-path:url(#SVGID_309_);} .st232{clip-path:url(#SVGID_311_);} .st233{clip-path:url(#SVGID_312_);} .st234{clip-path:url(#SVGID_314_);} .st235{clip-path:url(#SVGID_315_);} .st236{clip-path:url(#SVGID_316_);} .st237{clip-path:url(#SVGID_317_);} .st238{clip-path:url(#SVGID_318_);} .st239{clip-path:url(#SVGID_319_);} .st240{clip-path:url(#SVGID_321_);} .st241{fill:url(#SVGID_322_);} .st242{clip-path:url(#SVGID_324_);} .st243{clip-path:url(#SVGID_326_);} .st244{clip-path:url(#SVGID_327_);} .st245{clip-path:url(#SVGID_329_);} .st246{clip-path:url(#SVGID_330_);} .st247{clip-path:url(#SVGID_331_);} .st248{clip-path:url(#SVGID_332_);} .st249{clip-path:url(#SVGID_333_);} .st250{clip-path:url(#SVGID_334_);} .st251{clip-path:url(#SVGID_336_);} .st252{fill:url(#SVGID_337_);} .st253{clip-path:url(#SVGID_339_);} .st254{clip-path:url(#SVGID_341_);} .st255{clip-path:url(#SVGID_342_);} .st256{clip-path:url(#SVGID_344_);} .st257{clip-path:url(#SVGID_345_);} .st258{clip-path:url(#SVGID_346_);} .st259{clip-path:url(#SVGID_347_);} .st260{clip-path:url(#SVGID_348_);} .st261{clip-path:url(#SVGID_349_);} .st262{clip-path:url(#SVGID_351_);} .st263{fill:url(#SVGID_352_);} .st264{clip-path:url(#SVGID_354_);} .st265{clip-path:url(#SVGID_356_);} .st266{clip-path:url(#SVGID_357_);} .st267{clip-path:url(#SVGID_359_);} .st268{clip-path:url(#SVGID_360_);} .st269{clip-path:url(#SVGID_361_);} .st270{clip-path:url(#SVGID_362_);} .st271{clip-path:url(#SVGID_363_);} .st272{clip-path:url(#SVGID_364_);} .st273{clip-path:url(#SVGID_366_);} .st274{fill:url(#SVGID_367_);} .st275{clip-path:url(#SVGID_369_);} .st276{clip-path:url(#SVGID_371_);} .st277{clip-path:url(#SVGID_372_);} .st278{clip-path:url(#SVGID_374_);} .st279{clip-path:url(#SVGID_375_);} .st280{clip-path:url(#SVGID_376_);} .st281{clip-path:url(#SVGID_377_);} .st282{clip-path:url(#SVGID_378_);} .st283{clip-path:url(#SVGID_379_);} .st284{clip-path:url(#SVGID_381_);} .st285{fill:url(#SVGID_382_);} .st286{clip-path:url(#SVGID_384_);} .st287{clip-path:url(#SVGID_386_);} .st288{clip-path:url(#SVGID_387_);} .st289{clip-path:url(#SVGID_389_);} .st290{clip-path:url(#SVGID_390_);} .st291{clip-path:url(#SVGID_391_);} .st292{clip-path:url(#SVGID_392_);} .st293{clip-path:url(#SVGID_393_);} .st294{clip-path:url(#SVGID_394_);} .st295{clip-path:url(#SVGID_396_);} .st296{fill:url(#SVGID_397_);} .st297{clip-path:url(#SVGID_399_);} .st298{clip-path:url(#SVGID_401_);} .st299{clip-path:url(#SVGID_402_);} .st300{clip-path:url(#SVGID_404_);} .st301{clip-path:url(#SVGID_405_);} .st302{clip-path:url(#SVGID_406_);} .st303{clip-path:url(#SVGID_407_);} .st304{clip-path:url(#SVGID_408_);} .st305{clip-path:url(#SVGID_409_);} .st306{clip-path:url(#SVGID_411_);} </style> <g> <g> <path d="M108.5,57.5H20.34V41.65h2.54v-7.99h2.92v7.99h7.1v-7.99h2.92v7.99h7.1v-7.99h2.92v7.99h6.85v-7.99h3.04v7.99h6.98v-7.99 h2.92v7.99h7.1v-7.99h2.79v7.99h7.1v-7.99h2.92v7.99h6.98v-7.99h2.92v7.99h7.1v-7.99h2.79v7.99h3.17V57.5z M108.5,57.63H20.34 V41.77h2.54v-7.99h2.92v7.99h7.1v-7.99h2.92v7.99h7.1v-7.99h2.92v7.99h6.85v-7.99h3.04v7.99h6.98v-7.99h2.92v7.99h7.1v-7.99h2.79 v7.99h7.1v-7.99h2.92v7.99h6.98v-7.99h2.92v7.99h7.1v-7.99h2.79v7.99h3.17V57.63z M104.82,85.66l-4.95-10.27 c-1.27,2.2-2.5,4.44-3.68,6.72l-3.93-6.98c-1.35,2.28-2.62,4.61-3.81,6.98l-3.81-6.98c-1.35,2.28-2.66,4.61-3.93,6.98 c-1.19-2.28-2.45-4.57-3.81-6.85l-3.93,6.85l-3.81-6.98c-1.27,2.37-2.58,4.69-3.93,6.98l-3.68-6.98l-3.93,6.98l-3.81-6.98 l-3.81,6.98l-3.93-6.98l-3.81,6.98l-3.93-6.98l-3.93,6.85c-1.44-2.28-2.79-4.61-4.06-6.98l-6.34,10.66l-3.68-1.9 c1.18-2.11,4.52-7.74,10.02-16.87l4.06,6.85l4.06-6.98c1.18,2.37,2.45,4.65,3.81,6.85l3.81-6.98l3.81,6.98 c1.35-2.28,2.66-4.61,3.93-6.98c1.27,2.37,2.58,4.69,3.93,6.98l3.81-6.98l3.68,6.98c1.44-2.28,2.75-4.61,3.93-6.98l3.81,6.85 l3.93-6.85l3.81,6.98l3.93-6.98l3.81,6.98l3.81-6.98l3.93,6.98l3.93-7.1l8.37,17.38L104.82,85.66z M104.82,85.79l-4.95-10.27 c-1.27,2.2-2.5,4.44-3.68,6.72l-3.93-6.98c-1.35,2.28-2.62,4.61-3.81,6.98l-3.81-6.98c-1.35,2.28-2.66,4.61-3.93,6.98 c-1.19-2.28-2.45-4.57-3.81-6.85l-3.93,6.85l-3.81-6.98c-1.27,2.37-2.58,4.69-3.93,6.98l-3.68-6.98l-3.93,6.98l-3.81-6.98 l-3.81,6.98l-3.93-6.98l-3.81,6.98l-3.93-6.98l-3.93,6.85c-1.44-2.28-2.79-4.61-4.06-6.98l-6.34,10.66l-3.68-1.9 c1.18-2.11,4.52-7.74,10.02-16.87l4.06,6.85l4.06-6.98c1.18,2.37,2.45,4.65,3.81,6.85l3.81-6.98l3.81,6.98 c1.35-2.28,2.66-4.61,3.93-6.98c1.27,2.37,2.58,4.69,3.93,6.98l3.81-6.98l3.68,6.98c1.44-2.28,2.75-4.61,3.93-6.98l3.81,6.85 l3.93-6.85l3.81,6.98l3.93-6.98l3.81,6.98l3.81-6.98l3.93,6.98l3.93-7.1l8.37,17.38L104.82,85.79z M163.42,163.93 c-2.79,0-6.3-0.08-10.53-0.25c-4.57-1.1-8.37-1.65-11.42-1.65c-1.52,0-2.83,0.13-3.93,0.38c-3.47,0.85-6.34,1.27-8.63,1.27 c-2.2,0-3.95-0.55-5.26-1.65c-1.31-1.1-2.31-4.52-2.98-10.27c0-1.52-5.75-7.57-17.25-18.14c-11.5-10.57-18.06-18.56-19.66-23.97 c0-1.44-2.16-3.25-6.47-5.46c-1.52,0-4.99,2.79-10.4,8.37c-10.49,11.92-17.63,20.42-21.44,25.5c-2.28,2.88-3.42,5.2-3.42,6.98 c0,1.18,0.59,2.11,1.78,2.79c2.79,1.52,5.58,3.55,8.37,6.09c2.45,2.28,5.07,3.42,7.86,3.42l0.76-0.13 c6.17,0.93,9.26,2.45,9.26,4.57v1.9H48.62c-3.98-2.03-7.48-3.04-10.53-3.04c-1.52,0-2.92,0.25-4.19,0.76 c-3.81,1.52-6.72,2.28-8.75,2.28c-3.21-0.42-4.82-1.65-4.82-3.68c0-2.2,1.1-4.74,3.3-7.61c3.47-5.16,7.84-14.25,13.13-27.27 c5.28-13.02,14.06-22.45,26.32-28.29c7.27-4.57,12.81-6.85,16.62-6.85h4.06l4.95,2.79c17.17,19.62,30.95,36.45,41.35,50.48 c7.02,3.64,12.11,6.53,15.29,8.69c3.17,2.16,7.97,3.74,14.4,4.76c8.03,0.51,12.05,1.78,12.05,3.81v2.54 C171.79,163.63,169,163.93,163.42,163.93z M163.42,164.05c-2.79,0-6.3-0.08-10.53-0.25c-4.57-1.1-8.37-1.65-11.42-1.65 c-1.52,0-2.83,0.13-3.93,0.38c-3.47,0.85-6.34,1.27-8.63,1.27c-2.2,0-3.95-0.55-5.26-1.65c-1.31-1.1-2.31-4.52-2.98-10.27 c0-1.52-5.75-7.57-17.25-18.14c-11.5-10.57-18.06-18.56-19.66-23.97c0-1.44-2.16-3.25-6.47-5.45c-1.52,0-4.99,2.79-10.4,8.37 c-10.49,11.92-17.63,20.42-21.44,25.5c-2.28,2.88-3.42,5.2-3.42,6.98c0,1.18,0.59,2.11,1.78,2.79c2.79,1.52,5.58,3.55,8.37,6.09 c2.45,2.28,5.07,3.42,7.86,3.42l0.76-0.13c6.17,0.93,9.26,2.45,9.26,4.57v1.9H48.62c-3.98-2.03-7.48-3.04-10.53-3.04 c-1.52,0-2.92,0.25-4.19,0.76c-3.81,1.52-6.72,2.28-8.75,2.28c-3.21-0.42-4.82-1.65-4.82-3.68c0-2.2,1.1-4.73,3.3-7.61 c3.47-5.16,7.84-14.25,13.13-27.27c5.28-13.02,14.06-22.45,26.32-28.29c7.27-4.57,12.81-6.85,16.62-6.85h4.06l4.95,2.79 c17.17,19.62,30.95,36.45,41.35,50.48c7.02,3.64,12.11,6.53,15.29,8.69c3.17,2.16,7.97,3.74,14.4,4.76 c8.03,0.51,12.05,1.78,12.05,3.81v2.54C171.79,163.76,169,164.05,163.42,164.05z M163.42,163.16c4.31,0,6.85-0.13,7.61-0.38 c0-1.69-0.04-2.66-0.13-2.92c-0.76-1.18-4.52-2.03-11.29-2.54c-6.51-1.01-11.37-2.6-14.59-4.76c-3.21-2.16-8.33-5.05-15.35-8.69 c-0.17-0.08-0.25-0.17-0.25-0.25c-10.4-13.95-24.14-30.74-41.22-50.36l-4.69-2.54H79.7c-3.64,0-9.05,2.24-16.24,6.72 c-12.09,5.75-20.76,15.09-26,28.03c-5.24,12.94-9.64,22.03-13.19,27.27c-2.11,2.79-3.17,5.2-3.17,7.23c0,1.52,1.35,2.5,4.06,2.92 c1.94,0,4.78-0.72,8.5-2.16c1.35-0.51,2.83-0.76,4.44-0.76c3.13,0,6.68,0.97,10.65,2.92h20.42v-1.14c0-1.61-2.79-2.87-8.37-3.81 h-0.76c-2.96,0-5.79-1.22-8.5-3.68c-2.71-2.45-5.41-4.4-8.12-5.83c-1.44-0.76-2.16-1.94-2.16-3.55c0-1.86,1.14-4.31,3.42-7.36 c3.89-5.07,11.08-13.57,21.56-25.5c5.58-5.75,9.26-8.63,11.04-8.63l0.38,0.13c4.48,2.28,6.76,4.27,6.85,5.96 c1.69,5.33,8.16,13.19,19.41,23.59c8.88,8.12,14.5,13.78,16.87,17c0.42,0.59,0.63,1.14,0.63,1.65c0.68,5.58,1.61,8.84,2.79,9.77 c1.18,0.93,2.75,1.4,4.69,1.4c2.2,0,4.99-0.42,8.37-1.27c1.27-0.25,2.66-0.38,4.19-0.38c3.13,0,6.98,0.55,11.54,1.65 C157.16,163.08,160.63,163.16,163.42,163.16z M163.42,163.29c4.31,0,6.85-0.13,7.61-0.38c0-1.69-0.04-2.66-0.13-2.92 c-0.76-1.18-4.52-2.03-11.29-2.54c-6.51-1.01-11.37-2.6-14.59-4.76c-3.21-2.16-8.33-5.05-15.35-8.69 c-0.17-0.08-0.25-0.17-0.25-0.25c-10.4-13.95-24.14-30.74-41.22-50.36l-4.69-2.54H79.7c-3.64,0-9.05,2.24-16.24,6.72 c-12.09,5.75-20.76,15.09-26,28.03c-5.24,12.94-9.64,22.03-13.19,27.27c-2.11,2.79-3.17,5.2-3.17,7.23c0,1.52,1.35,2.5,4.06,2.92 c1.94,0,4.78-0.72,8.5-2.16c1.35-0.51,2.83-0.76,4.44-0.76c3.13,0,6.68,0.97,10.65,2.92h20.42v-1.14c0-1.61-2.79-2.87-8.37-3.81 h-0.76c-2.96,0-5.79-1.22-8.5-3.68c-2.71-2.45-5.41-4.4-8.12-5.83c-1.44-0.76-2.16-1.94-2.16-3.55c0-1.86,1.14-4.31,3.42-7.36 c3.89-5.07,11.08-13.57,21.56-25.5c5.58-5.75,9.26-8.63,11.04-8.63l0.38,0.13c4.48,2.28,6.76,4.27,6.85,5.96 c1.69,5.33,8.16,13.19,19.41,23.59c8.88,8.12,14.5,13.78,16.87,17c0.42,0.59,0.63,1.14,0.63,1.65c0.68,5.58,1.61,8.84,2.79,9.77 c1.18,0.93,2.75,1.4,4.69,1.4c2.2,0,4.99-0.42,8.37-1.27c1.27-0.25,2.66-0.38,4.19-0.38c3.13,0,6.98,0.55,11.54,1.65 C157.16,163.21,160.63,163.29,163.42,163.29z M163.42,162.4c4.06,0,6.3-0.08,6.72-0.25v-1.9c-0.08-0.25-1.01-0.63-2.79-1.14 l-4.44-0.76l-3.42-0.25c-6.6-1.1-11.54-2.73-14.84-4.88c-3.3-2.16-8.42-5.05-15.35-8.69c-0.25-0.08-0.42-0.21-0.51-0.38 c-10.4-13.95-24.1-30.74-41.1-50.36l-4.44-2.28H79.7c-3.47,0-8.71,2.16-15.73,6.47c0,0.08-0.04,0.13-0.13,0.13 c-11.92,5.67-20.47,14.84-25.62,27.53c-5.24,13.11-9.64,22.28-13.19,27.53c0,0.08-0.04,0.13-0.13,0.13 c-1.95,2.62-2.92,4.86-2.92,6.72c0,0.17,0.04,0.4,0.13,0.7c0.08,0.3,0.36,0.59,0.82,0.89c0.46,0.3,1.25,0.49,2.35,0.57 c1.86,0,4.57-0.68,8.12-2.03c1.44-0.59,3-0.89,4.69-0.89c3.21,0,6.85,0.97,10.91,2.92h19.41v-0.38c0-0.42-0.57-0.93-1.71-1.52 c-1.14-0.59-3.11-1.1-5.9-1.52h-0.76c-3.13,0-6.09-1.25-8.88-3.74c-2.79-2.49-5.5-4.46-8.12-5.9c-1.61-0.84-2.45-2.16-2.54-3.93 c0-2.11,1.18-4.78,3.55-7.99c3.89-5.07,11.08-13.61,21.56-25.62h0.13c5.75-5.92,9.6-8.88,11.54-8.88c0.25,0,0.51,0.08,0.76,0.25 c4.73,2.37,7.15,4.53,7.23,6.47c1.69,5.24,8.12,12.98,19.28,23.21l8.5,7.86c6.09,6,9.13,9.68,9.13,11.04v0.25 c0.59,4.14,1.25,6.91,1.97,8.31c0.72,1.39,2.3,2.09,4.76,2.09c2.11,0,4.82-0.38,8.12-1.14c1.35-0.34,2.83-0.51,4.44-0.51 c3.13,0,7.02,0.55,11.67,1.65C157.29,162.32,160.71,162.4,163.42,162.4z M163.42,162.53c4.06,0,6.3-0.08,6.72-0.25v-1.9 c-0.08-0.25-1.01-0.63-2.79-1.14l-4.44-0.76l-3.42-0.25c-6.6-1.1-11.54-2.73-14.84-4.88c-3.3-2.16-8.42-5.05-15.35-8.69 c-0.25-0.08-0.42-0.21-0.51-0.38c-10.4-13.95-24.1-30.74-41.1-50.36l-4.44-2.28H79.7c-3.47,0-8.71,2.16-15.73,6.47 c0,0.08-0.04,0.13-0.13,0.13c-11.92,5.67-20.47,14.84-25.62,27.53c-5.24,13.11-9.64,22.28-13.19,27.52c0,0.09-0.04,0.13-0.13,0.13 c-1.95,2.62-2.92,4.86-2.92,6.72c0,0.17,0.04,0.4,0.13,0.7c0.08,0.3,0.36,0.59,0.82,0.89c0.46,0.3,1.25,0.49,2.35,0.57 c1.86,0,4.57-0.68,8.12-2.03c1.44-0.59,3-0.89,4.69-0.89c3.21,0,6.85,0.97,10.91,2.92h19.41v-0.38c0-0.42-0.57-0.93-1.71-1.52 c-1.14-0.59-3.11-1.1-5.9-1.52h-0.76c-3.13,0-6.09-1.25-8.88-3.74c-2.79-2.49-5.5-4.46-8.12-5.9c-1.61-0.84-2.45-2.16-2.54-3.93 c0-2.11,1.18-4.78,3.55-7.99c3.89-5.07,11.08-13.61,21.56-25.62h0.13c5.75-5.92,9.6-8.88,11.54-8.88c0.25,0,0.51,0.08,0.76,0.25 c4.73,2.37,7.15,4.53,7.23,6.47c1.69,5.24,8.12,12.98,19.28,23.21l8.5,7.87c6.09,6,9.13,9.68,9.13,11.04v0.25 c0.59,4.14,1.25,6.91,1.97,8.31c0.72,1.4,2.3,2.09,4.76,2.09c2.11,0,4.82-0.38,8.12-1.14c1.35-0.34,2.83-0.51,4.44-0.51 c3.13,0,7.02,0.55,11.67,1.65C157.29,162.45,160.71,162.53,163.42,162.53z M105.7,54.71v-10.4H23.26v10.4H105.7z M105.7,54.84 v-10.4H23.26v10.4H105.7z M161.01,130.95c-4.99-0.59-7.48-2.62-7.48-6.09v-0.13c0-3.55,1.35-8.54,4.06-14.97V48.75 c-0.51-4.99-3.09-7.48-7.74-7.48c-4.31,0-6.98,2.5-7.99,7.48v61.01c2.71,5.83,4.06,10.61,4.06,14.33c0,4.14-2.45,6.43-7.36,6.85 c-4.99-0.59-7.48-2.62-7.48-6.09v-0.13c0.08-3.55,1.44-8.54,4.06-14.97V51.54c0-7.19,2.41-12.13,7.23-14.84 c2.45-1.44,4.9-2.16,7.36-2.16c2.54,0,5.03,0.72,7.48,2.16c4.74,2.62,7.1,7.44,7.1,14.46v58.6c2.71,5.83,4.06,10.61,4.06,14.33 C168.37,128.24,165.91,130.52,161.01,130.95z M161.01,131.07c-4.99-0.59-7.48-2.62-7.48-6.09v-0.13c0-3.55,1.35-8.54,4.06-14.97 V48.88c-0.51-4.99-3.09-7.48-7.74-7.48c-4.31,0-6.98,2.5-7.99,7.48v61.01c2.71,5.83,4.06,10.61,4.06,14.33 c0,4.14-2.45,6.43-7.36,6.85c-4.99-0.59-7.48-2.62-7.48-6.09v-0.13c0.08-3.55,1.44-8.54,4.06-14.97V51.67 c0-7.19,2.41-12.13,7.23-14.84c2.45-1.44,4.9-2.16,7.36-2.16c2.54,0,5.03,0.72,7.48,2.16c4.74,2.62,7.1,7.44,7.1,14.46v58.6 c2.71,5.83,4.06,10.61,4.06,14.33C168.37,128.37,165.91,130.65,161.01,131.07z"/> </g> </g> </g>

</svg>