<?xml version="1.0" ?>

<!-- Uploaded to: SVG Repo, www.svgrepo.com, Generator: SVG Repo Mixer Tools -->
<svg width="800px" height="800px" viewBox="0 0 192 192" id="Layer_1" version="1.1" xml:space="preserve" xmlns="http://www.w3.org/2000/svg" fill="#e6c200" xmlns:xlink="http://www.w3.org/1999/xlink">

<style type="text/css">
	.st0{fill:#E0E0E0;}
	.st1{fill:#FFFFFF;fill-opacity:0.2;}
	.st2{fill:#212121;fill-opacity:0.1;}
	.st3{fill:#616161;}
	.st4{fill:#FFFFFF;fill-opacity:0.1;}
	.st5{fill:#212121;fill-opacity:0.2;}
	.st6{fill:url(#SVGID_1_);}
	.st7{clip-path:url(#SVGID_3_);}
	.st8{fill:none;}
	.st9{clip-path:url(#SVGID_5_);}
	.st10{clip-path:url(#SVGID_7_);}
	.st11{fill:none;stroke:#000000;stroke-width:0.25;stroke-miterlimit:10;}
	.st12{clip-path:url(#SVGID_9_);}
	.st13{opacity:0.4;}
	.st14{clip-path:url(#SVGID_11_);}
	.st15{clip-path:url(#SVGID_13_);}
	.st16{clip-path:url(#SVGID_15_);}
	.st17{clip-path:url(#SVGID_17_);}
	.st18{clip-path:url(#SVGID_19_);}
	.st19{clip-path:url(#SVGID_21_);}
	.st20{fill:#DB4437;fill-opacity:0.4;}
	.st21{fill:url(#SVGID_22_);}
	.st22{clip-path:url(#SVGID_24_);}
	.st23{clip-path:url(#SVGID_26_);}
	.st24{clip-path:url(#SVGID_27_);}
	.st25{clip-path:url(#SVGID_29_);}
	.st26{clip-path:url(#SVGID_30_);}
	.st27{clip-path:url(#SVGID_31_);}
	.st28{clip-path:url(#SVGID_32_);}
	.st29{clip-path:url(#SVGID_33_);}
	.st30{clip-path:url(#SVGID_34_);}
	.st31{clip-path:url(#SVGID_36_);}
	.st32{fill:url(#SVGID_37_);}
	.st33{clip-path:url(#SVGID_39_);}
	.st34{clip-path:url(#SVGID_41_);}
	.st35{clip-path:url(#SVGID_42_);}
	.st36{clip-path:url(#SVGID_44_);}
	.st37{clip-path:url(#SVGID_45_);}
	.st38{clip-path:url(#SVGID_46_);}
	.st39{clip-path:url(#SVGID_47_);}
	.st40{clip-path:url(#SVGID_48_);}
	.st41{clip-path:url(#SVGID_49_);}
	.st42{clip-path:url(#SVGID_51_);}
	.st43{fill:url(#SVGID_52_);}
	.st44{clip-path:url(#SVGID_54_);}
	.st45{clip-path:url(#SVGID_56_);}
	.st46{clip-path:url(#SVGID_57_);}
	.st47{clip-path:url(#SVGID_59_);}
	.st48{clip-path:url(#SVGID_60_);}
	.st49{clip-path:url(#SVGID_61_);}
	.st50{clip-path:url(#SVGID_62_);}
	.st51{clip-path:url(#SVGID_63_);}
	.st52{clip-path:url(#SVGID_64_);}
	.st53{clip-path:url(#SVGID_66_);}
	.st54{fill:url(#SVGID_67_);}
	.st55{clip-path:url(#SVGID_69_);}
	.st56{clip-path:url(#SVGID_71_);}
	.st57{clip-path:url(#SVGID_72_);}
	.st58{clip-path:url(#SVGID_74_);}
	.st59{clip-path:url(#SVGID_75_);}
	.st60{clip-path:url(#SVGID_76_);}
	.st61{clip-path:url(#SVGID_77_);}
	.st62{clip-path:url(#SVGID_78_);}
	.st63{clip-path:url(#SVGID_79_);}
	.st64{clip-path:url(#SVGID_81_);}
	.st65{fill:url(#SVGID_82_);}
	.st66{clip-path:url(#SVGID_84_);}
	.st67{clip-path:url(#SVGID_86_);}
	.st68{clip-path:url(#SVGID_87_);}
	.st69{clip-path:url(#SVGID_89_);}
	.st70{clip-path:url(#SVGID_90_);}
	.st71{clip-path:url(#SVGID_91_);}
	.st72{clip-path:url(#SVGID_92_);}
	.st73{clip-path:url(#SVGID_93_);}
	.st74{clip-path:url(#SVGID_94_);}
	.st75{clip-path:url(#SVGID_96_);}
	.st76{fill:url(#SVGID_97_);}
	.st77{clip-path:url(#SVGID_99_);}
	.st78{clip-path:url(#SVGID_101_);}
	.st79{clip-path:url(#SVGID_102_);}
	.st80{clip-path:url(#SVGID_104_);}
	.st81{clip-path:url(#SVGID_105_);}
	.st82{clip-path:url(#SVGID_106_);}
	.st83{clip-path:url(#SVGID_107_);}
	.st84{clip-path:url(#SVGID_108_);}
	.st85{clip-path:url(#SVGID_109_);}
	.st86{clip-path:url(#SVGID_111_);}
	.st87{fill:url(#SVGID_112_);}
	.st88{clip-path:url(#SVGID_114_);}
	.st89{clip-path:url(#SVGID_116_);}
	.st90{clip-path:url(#SVGID_117_);}
	.st91{clip-path:url(#SVGID_119_);}
	.st92{clip-path:url(#SVGID_120_);}
	.st93{clip-path:url(#SVGID_121_);}
	.st94{clip-path:url(#SVGID_122_);}
	.st95{clip-path:url(#SVGID_123_);}
	.st96{clip-path:url(#SVGID_124_);}
	.st97{clip-path:url(#SVGID_126_);}
	.st98{fill:url(#SVGID_127_);}
	.st99{clip-path:url(#SVGID_129_);}
	.st100{clip-path:url(#SVGID_131_);}
	.st101{clip-path:url(#SVGID_132_);}
	.st102{clip-path:url(#SVGID_134_);}
	.st103{clip-path:url(#SVGID_135_);}
	.st104{clip-path:url(#SVGID_136_);}
	.st105{clip-path:url(#SVGID_137_);}
	.st106{clip-path:url(#SVGID_138_);}
	.st107{clip-path:url(#SVGID_139_);}
	.st108{clip-path:url(#SVGID_141_);}
	.st109{fill:url(#SVGID_142_);}
	.st110{clip-path:url(#SVGID_144_);}
	.st111{clip-path:url(#SVGID_146_);}
	.st112{clip-path:url(#SVGID_147_);}
	.st113{clip-path:url(#SVGID_149_);}
	.st114{clip-path:url(#SVGID_150_);}
	.st115{clip-path:url(#SVGID_151_);}
	.st116{clip-path:url(#SVGID_152_);}
	.st117{clip-path:url(#SVGID_153_);}
	.st118{clip-path:url(#SVGID_154_);}
	.st119{clip-path:url(#SVGID_156_);}
	.st120{fill:url(#SVGID_157_);}
	.st121{clip-path:url(#SVGID_159_);}
	.st122{clip-path:url(#SVGID_161_);}
	.st123{clip-path:url(#SVGID_162_);}
	.st124{clip-path:url(#SVGID_164_);}
	.st125{clip-path:url(#SVGID_165_);}
	.st126{clip-path:url(#SVGID_166_);}
	.st127{clip-path:url(#SVGID_167_);}
	.st128{clip-path:url(#SVGID_168_);}
	.st129{clip-path:url(#SVGID_169_);}
	.st130{clip-path:url(#SVGID_171_);}
	.st131{fill:url(#SVGID_172_);}
	.st132{clip-path:url(#SVGID_174_);}
	.st133{clip-path:url(#SVGID_176_);}
	.st134{clip-path:url(#SVGID_177_);}
	.st135{clip-path:url(#SVGID_179_);}
	.st136{clip-path:url(#SVGID_180_);}
	.st137{clip-path:url(#SVGID_181_);}
	.st138{clip-path:url(#SVGID_182_);}
	.st139{clip-path:url(#SVGID_183_);}
	.st140{clip-path:url(#SVGID_184_);}
	.st141{clip-path:url(#SVGID_186_);}
	.st142{fill:url(#SVGID_187_);}
	.st143{clip-path:url(#SVGID_189_);}
	.st144{clip-path:url(#SVGID_191_);}
	.st145{clip-path:url(#SVGID_192_);}
	.st146{clip-path:url(#SVGID_194_);}
	.st147{clip-path:url(#SVGID_195_);}
	.st148{clip-path:url(#SVGID_196_);}
	.st149{clip-path:url(#SVGID_197_);}
	.st150{clip-path:url(#SVGID_198_);}
	.st151{clip-path:url(#SVGID_199_);}
	.st152{clip-path:url(#SVGID_201_);}
	.st153{fill:url(#SVGID_202_);}
	.st154{clip-path:url(#SVGID_204_);}
	.st155{clip-path:url(#SVGID_206_);}
	.st156{clip-path:url(#SVGID_207_);}
	.st157{clip-path:url(#SVGID_209_);}
	.st158{clip-path:url(#SVGID_210_);}
	.st159{clip-path:url(#SVGID_211_);}
	.st160{clip-path:url(#SVGID_212_);}
	.st161{clip-path:url(#SVGID_213_);}
	.st162{clip-path:url(#SVGID_214_);}
	.st163{clip-path:url(#SVGID_216_);}
	.st164{fill:url(#SVGID_217_);}
	.st165{clip-path:url(#SVGID_219_);}
	.st166{clip-path:url(#SVGID_221_);}
	.st167{clip-path:url(#SVGID_222_);}
	.st168{clip-path:url(#SVGID_224_);}
	.st169{clip-path:url(#SVGID_225_);}
	.st170{clip-path:url(#SVGID_226_);}
	.st171{clip-path:url(#SVGID_227_);}
	.st172{clip-path:url(#SVGID_228_);}
	.st173{clip-path:url(#SVGID_229_);}
	.st174{clip-path:url(#SVGID_231_);}
	.st175{fill:url(#SVGID_232_);}
	.st176{clip-path:url(#SVGID_234_);}
	.st177{clip-path:url(#SVGID_236_);}
	.st178{clip-path:url(#SVGID_237_);}
	.st179{clip-path:url(#SVGID_239_);}
	.st180{clip-path:url(#SVGID_240_);}
	.st181{clip-path:url(#SVGID_241_);}
	.st182{clip-path:url(#SVGID_242_);}
	.st183{clip-path:url(#SVGID_243_);}
	.st184{clip-path:url(#SVGID_244_);}
	.st185{clip-path:url(#SVGID_246_);}
	.st186{fill:url(#SVGID_247_);}
	.st187{clip-path:url(#SVGID_249_);}
	.st188{clip-path:url(#SVGID_251_);}
	.st189{clip-path:url(#SVGID_252_);}
	.st190{clip-path:url(#SVGID_254_);}
	.st191{clip-path:url(#SVGID_255_);}
	.st192{clip-path:url(#SVGID_256_);}
	.st193{clip-path:url(#SVGID_257_);}
	.st194{clip-path:url(#SVGID_258_);}
	.st195{clip-path:url(#SVGID_259_);}
	.st196{clip-path:url(#SVGID_261_);}
	.st197{fill:url(#SVGID_262_);}
	.st198{clip-path:url(#SVGID_264_);}
	.st199{clip-path:url(#SVGID_266_);}
	.st200{clip-path:url(#SVGID_267_);}
	.st201{clip-path:url(#SVGID_269_);}
	.st202{clip-path:url(#SVGID_270_);}
	.st203{clip-path:url(#SVGID_271_);}
	.st204{clip-path:url(#SVGID_272_);}
	.st205{clip-path:url(#SVGID_273_);}
	.st206{clip-path:url(#SVGID_274_);}
	.st207{clip-path:url(#SVGID_276_);}
	.st208{fill:url(#SVGID_277_);}
	.st209{clip-path:url(#SVGID_279_);}
	.st210{clip-path:url(#SVGID_281_);}
	.st211{clip-path:url(#SVGID_282_);}
	.st212{clip-path:url(#SVGID_284_);}
	.st213{clip-path:url(#SVGID_285_);}
	.st214{clip-path:url(#SVGID_286_);}
	.st215{clip-path:url(#SVGID_287_);}
	.st216{clip-path:url(#SVGID_288_);}
	.st217{clip-path:url(#SVGID_289_);}
	.st218{clip-path:url(#SVGID_291_);}
	.st219{fill:url(#SVGID_292_);}
	.st220{clip-path:url(#SVGID_294_);}
	.st221{clip-path:url(#SVGID_296_);}
	.st222{clip-path:url(#SVGID_297_);}
	.st223{clip-path:url(#SVGID_299_);}
	.st224{clip-path:url(#SVGID_300_);}
	.st225{clip-path:url(#SVGID_301_);}
	.st226{clip-path:url(#SVGID_302_);}
	.st227{clip-path:url(#SVGID_303_);}
	.st228{clip-path:url(#SVGID_304_);}
	.st229{clip-path:url(#SVGID_306_);}
	.st230{fill:url(#SVGID_307_);}
	.st231{clip-path:url(#SVGID_309_);}
	.st232{clip-path:url(#SVGID_311_);}
	.st233{clip-path:url(#SVGID_312_);}
	.st234{clip-path:url(#SVGID_314_);}
	.st235{clip-path:url(#SVGID_315_);}
	.st236{clip-path:url(#SVGID_316_);}
	.st237{clip-path:url(#SVGID_317_);}
	.st238{clip-path:url(#SVGID_318_);}
	.st239{clip-path:url(#SVGID_319_);}
	.st240{clip-path:url(#SVGID_321_);}
	.st241{fill:url(#SVGID_322_);}
	.st242{clip-path:url(#SVGID_324_);}
	.st243{clip-path:url(#SVGID_326_);}
	.st244{clip-path:url(#SVGID_327_);}
	.st245{clip-path:url(#SVGID_329_);}
	.st246{clip-path:url(#SVGID_330_);}
	.st247{clip-path:url(#SVGID_331_);}
	.st248{clip-path:url(#SVGID_332_);}
	.st249{clip-path:url(#SVGID_333_);}
	.st250{clip-path:url(#SVGID_334_);}
	.st251{clip-path:url(#SVGID_336_);}
	.st252{fill:url(#SVGID_337_);}
	.st253{clip-path:url(#SVGID_339_);}
	.st254{clip-path:url(#SVGID_341_);}
	.st255{clip-path:url(#SVGID_342_);}
	.st256{clip-path:url(#SVGID_344_);}
	.st257{clip-path:url(#SVGID_345_);}
	.st258{clip-path:url(#SVGID_346_);}
	.st259{clip-path:url(#SVGID_347_);}
	.st260{clip-path:url(#SVGID_348_);}
	.st261{clip-path:url(#SVGID_349_);}
	.st262{clip-path:url(#SVGID_351_);}
	.st263{fill:url(#SVGID_352_);}
	.st264{clip-path:url(#SVGID_354_);}
	.st265{clip-path:url(#SVGID_356_);}
	.st266{clip-path:url(#SVGID_357_);}
	.st267{clip-path:url(#SVGID_359_);}
	.st268{clip-path:url(#SVGID_360_);}
	.st269{clip-path:url(#SVGID_361_);}
	.st270{clip-path:url(#SVGID_362_);}
	.st271{clip-path:url(#SVGID_363_);}
	.st272{clip-path:url(#SVGID_364_);}
	.st273{clip-path:url(#SVGID_366_);}
	.st274{fill:url(#SVGID_367_);}
	.st275{clip-path:url(#SVGID_369_);}
	.st276{clip-path:url(#SVGID_371_);}
	.st277{clip-path:url(#SVGID_372_);}
	.st278{clip-path:url(#SVGID_374_);}
	.st279{clip-path:url(#SVGID_375_);}
	.st280{clip-path:url(#SVGID_376_);}
	.st281{clip-path:url(#SVGID_377_);}
	.st282{clip-path:url(#SVGID_378_);}
	.st283{clip-path:url(#SVGID_379_);}
	.st284{clip-path:url(#SVGID_381_);}
	.st285{fill:url(#SVGID_382_);}
	.st286{clip-path:url(#SVGID_384_);}
	.st287{clip-path:url(#SVGID_386_);}
	.st288{clip-path:url(#SVGID_387_);}
	.st289{clip-path:url(#SVGID_389_);}
	.st290{clip-path:url(#SVGID_390_);}
	.st291{clip-path:url(#SVGID_391_);}
	.st292{clip-path:url(#SVGID_392_);}
	.st293{clip-path:url(#SVGID_393_);}
	.st294{clip-path:url(#SVGID_394_);}
	.st295{clip-path:url(#SVGID_396_);}
	.st296{fill:url(#SVGID_397_);}
	.st297{clip-path:url(#SVGID_399_);}
	.st298{clip-path:url(#SVGID_401_);}
	.st299{clip-path:url(#SVGID_402_);}
	.st300{clip-path:url(#SVGID_404_);}
	.st301{clip-path:url(#SVGID_405_);}
	.st302{clip-path:url(#SVGID_406_);}
	.st303{clip-path:url(#SVGID_407_);}
	.st304{clip-path:url(#SVGID_408_);}
	.st305{clip-path:url(#SVGID_409_);}
	.st306{clip-path:url(#SVGID_411_);}
</style>

<g>

<g>

<path d="M131.2,74.12l-16.62-5.07h-77.5l-16.74,5.07V58.14H131.2V74.12z M131.2,74.25l-16.62-5.07h-77.5l-16.74,5.07V58.26H131.2    V74.25z M46.6,53.19c-3.55,0-6.94-0.42-10.15-1.27c-2.79-0.68-6.51-1.01-11.16-1.01l-2.16,0.13c-0.68,0-1.02-1.06-1.02-3.17    c0-2.11,0.38-3.17,1.14-3.17c1.78-0.25,3.93-1.52,6.47-3.81c5.33-4.73,10.95-7.1,16.87-7.1c5.75,0,13.61,1.65,23.59,4.95    c3.97,0.93,7.86,1.4,11.67,1.4l0.13,4.69h-2.16c-3.3,0-7.06,0.55-11.29,1.65C61.44,50.95,54.12,53.19,46.6,53.19z M46.6,53.32    c-3.55,0-6.94-0.42-10.15-1.27c-2.79-0.68-6.51-1.02-11.16-1.02l-2.16,0.13c-0.68,0-1.02-1.06-1.02-3.17    c0-2.11,0.38-3.17,1.14-3.17c1.78-0.25,3.93-1.52,6.47-3.81c5.33-4.73,10.95-7.1,16.87-7.1c5.75,0,13.61,1.65,23.59,4.95    c3.97,0.93,7.86,1.4,11.67,1.4l0.13,4.69h-2.16c-3.3,0-7.06,0.55-11.29,1.65C61.44,51.08,54.12,53.32,46.6,53.32z M51.92,158.85    h-6.47v-39.83H26.3v-4.95h19.41c-6.09-10.74-9.13-19.11-9.13-25.12c0-7.02,4.1-10.82,12.3-11.42c8.12,0.51,12.18,4.27,12.18,11.29    c0,6-3.04,14.42-9.13,25.24h19.41v4.69H51.92V158.85z M51.92,158.98h-6.47v-39.83H26.3v-4.95h19.41    c-6.09-10.74-9.13-19.11-9.13-25.12c0-7.02,4.1-10.82,12.3-11.42c8.12,0.51,12.18,4.27,12.18,11.29c0,6-3.04,14.42-9.13,25.24    h19.41v4.69H51.92V158.98z M46.6,49.64c4.23,0,6.38-1.86,6.47-5.58c0-2.71-0.53-4.52-1.59-5.45c-1.06-0.93-2.69-1.4-4.88-1.4    c-2.2,0-3.85,0.47-4.95,1.4c-1.1,0.93-1.65,2.75-1.65,5.45C40,47.78,42.2,49.64,46.6,49.64z M46.6,49.77    c4.23,0,6.38-1.86,6.47-5.58c0-2.71-0.53-4.52-1.59-5.45c-1.06-0.93-2.69-1.4-4.88-1.4c-2.2,0-3.85,0.47-4.95,1.4    c-1.1,0.93-1.65,2.75-1.65,5.45C40,47.91,42.2,49.77,46.6,49.77z M48.88,112.05c5.5-9.47,8.24-16.74,8.24-21.82    c0-5.07-2.75-7.95-8.24-8.63c-5.5,0.68-8.25,3.55-8.25,8.63C40.63,95.3,43.38,102.58,48.88,112.05z M48.88,112.17    c5.5-9.47,8.24-16.74,8.24-21.82c0-5.07-2.75-7.95-8.24-8.63c-5.5,0.68-8.25,3.55-8.25,8.63C40.63,95.43,43.38,102.7,48.88,112.17    z M138.3,159.99h-20.93v-4.82h5.58c-2.2-1.78-3.93-3.93-5.2-6.47c-2.03-3.55-3.04-7.69-3.04-12.43c-0.08-1.86-0.3-3.68-0.63-5.45    c-0.93-0.42-1.9-0.8-2.92-1.14l-4.82-1.9c-0.93-0.68-1.4-1.61-1.4-2.79c-0.17,0.34-0.51,0.63-1.01,0.89    c-0.51,0.25-1.01,0.38-1.52,0.38c-0.25,0-0.42-0.04-0.51-0.13c-7.36,0.68-12.3,3.13-14.84,7.36v0.51c0,0.17,0,0.32,0,0.44    s0.13,0.19,0.38,0.19c0.42,0,1.1-0.25,2.03-0.76c0.93-0.51,1.73-0.76,2.41-0.76c2.37-0.51,4.78-0.76,7.23-0.76    c1.78,0,3.51,0.17,5.2,0.51c0.42,0.34,0.63,0.63,0.63,0.89v0.51c-0.08,0.17-0.42,0.38-1.01,0.63c-0.59,0.25-1.14,0.38-1.65,0.38    c-0.17,0-0.3-0.04-0.38-0.13c-2.96,0.34-5.79,1.04-8.5,2.09c-2.71,1.06-4.82,2.85-6.34,5.39c0,6.17-0.04,11.12-0.13,14.84    c0,0.85-0.21,1.48-0.63,1.9c-0.42,0.42-0.89,0.63-1.4,0.63c-0.59,0-1.1-0.21-1.52-0.63c-0.42-0.42-0.63-1.01-0.63-1.78v-3.81    c0.08-1.01,0.13-2.07,0.13-3.17c0-2.62-0.17-5.28-0.51-7.99c-0.68-2.28-2.41-3.93-5.2-4.95c-3.21-1.1-7.27-2.07-12.18-2.92    c-0.25-0.34-0.38-0.63-0.38-0.89c0-0.17,0.1-0.36,0.32-0.57c0.21-0.21,0.63-0.38,1.27-0.51c0.63-0.13,1.42-0.21,2.35-0.25    c0.93-0.04,1.78-0.06,2.54-0.06c3.97,0,7.86,0.89,11.67,2.66c-0.09-1.69-0.74-3.09-1.97-4.19c-1.23-1.1-2.47-1.99-3.74-2.66    c-2.62-0.93-5.29-1.56-7.99-1.9c-1.35-0.17-2.71-0.42-4.06-0.76c-0.34-0.34-0.51-0.63-0.51-0.89c0-0.08,0.08-0.23,0.25-0.44    c0.17-0.21,0.53-0.42,1.08-0.63c0.55-0.21,1.08-0.32,1.59-0.32l0.51,0.13l3.04-0.13c4.06,0,7.99,0.89,11.8,2.66l-0.13-19.79    c0-6.09,0.08-12.09,0.25-18.01c0.34-4.14,2.41-6.93,6.22-8.37c2.71-1.1,5.54-1.65,8.5-1.65c1.52,0,3,0.08,4.44,0.25    c0.68,0.25,1.06,0.59,1.14,1.01c0,0.51-0.17,0.95-0.51,1.33c-0.34,0.38-0.93,0.57-1.78,0.57c-1.35,0-3.59,0.3-6.72,0.89    c-1.78,0.34-3.34,0.97-4.69,1.9c-1.35,1.61-2.11,3.55-2.28,5.83c-0.17,1.78-0.25,4.06-0.25,6.85l0.13,2.28    c0,0.68-0.04,1.31-0.13,1.9V126c3.89-1.78,7.86-2.66,11.92-2.66c3.81,0,5.83,0.38,6.09,1.14c0.08-0.59,0.27-1.21,0.57-1.84    c0.3-0.63,0.74-1.22,1.33-1.78c0.59-0.55,1.27-0.83,2.03-0.83c0.17,0,0.3,0.04,0.38,0.13c2.2,0.42,4.02,0.93,5.45,1.52    c1.27-2.28,2.96-4.1,5.07-5.45l-0.51-0.13c-1.69,0-2.79-0.46-3.3-1.4c-0.76-1.18-1.14-2.41-1.14-3.68s0.55-2.11,1.65-2.54    c2.11-0.59,5.16-0.89,9.13-0.89h2.66c3.64,0,6.89,0.3,9.77,0.89c0.59,0.17,1.03,0.49,1.33,0.95c0.29,0.47,0.44,0.87,0.44,1.21    c0,0.25-0.04,0.47-0.13,0.63c0,2.2-0.76,3.68-2.28,4.44c-0.09,0.08-0.21,0.13-0.38,0.13c-0.17,0-0.34,0.04-0.51,0.13h-0.38    l-0.13,0.13c0,0.08,0,0.15,0,0.19c0,0.04,0.13,0.11,0.38,0.19c1.86,1.35,3.38,3.04,4.57,5.07l5.71-1.52    c1.52,0,2.71,0.97,3.55,2.92c0.25,0.68,0.38,1.69,0.38,3.04c-0.08,0.59-0.55,1.19-1.4,1.78l-7.61,2.92    c-0.34,1.86-0.51,3.72-0.51,5.58c0,7.53-2.66,13.74-7.99,18.65l-0.25,0.25h5.46V159.99z M138.3,160.12h-20.93v-4.82h5.58    c-2.2-1.78-3.93-3.93-5.2-6.47c-2.03-3.55-3.04-7.69-3.04-12.43c-0.08-1.86-0.3-3.68-0.63-5.45c-0.93-0.42-1.9-0.8-2.92-1.14    l-4.82-1.9c-0.93-0.68-1.4-1.61-1.4-2.79c-0.17,0.34-0.51,0.63-1.01,0.89c-0.51,0.25-1.01,0.38-1.52,0.38    c-0.25,0-0.42-0.04-0.51-0.13c-7.36,0.68-12.3,3.13-14.84,7.36v0.51c0,0.17,0,0.32,0,0.44s0.13,0.19,0.38,0.19    c0.42,0,1.1-0.25,2.03-0.76c0.93-0.51,1.73-0.76,2.41-0.76c2.37-0.51,4.78-0.76,7.23-0.76c1.78,0,3.51,0.17,5.2,0.51    c0.42,0.34,0.63,0.63,0.63,0.89v0.51c-0.08,0.17-0.42,0.38-1.01,0.63c-0.59,0.25-1.14,0.38-1.65,0.38c-0.17,0-0.3-0.04-0.38-0.13    c-2.96,0.34-5.79,1.04-8.5,2.09c-2.71,1.06-4.82,2.85-6.34,5.39c0,6.17-0.04,11.12-0.13,14.84c0,0.85-0.21,1.48-0.63,1.9    c-0.42,0.42-0.89,0.63-1.4,0.63c-0.59,0-1.1-0.21-1.52-0.63c-0.42-0.42-0.63-1.01-0.63-1.78v-3.8c0.08-1.01,0.13-2.07,0.13-3.17    c0-2.62-0.17-5.28-0.51-7.99c-0.68-2.28-2.41-3.93-5.2-4.95c-3.21-1.1-7.27-2.07-12.18-2.92c-0.25-0.34-0.38-0.63-0.38-0.89    c0-0.17,0.1-0.36,0.32-0.57c0.21-0.21,0.63-0.38,1.27-0.51c0.63-0.13,1.42-0.21,2.35-0.25c0.93-0.04,1.78-0.06,2.54-0.06    c3.97,0,7.86,0.89,11.67,2.66c-0.09-1.69-0.74-3.09-1.97-4.19c-1.23-1.1-2.47-1.99-3.74-2.66c-2.62-0.93-5.29-1.56-7.99-1.9    c-1.35-0.17-2.71-0.42-4.06-0.76c-0.34-0.34-0.51-0.63-0.51-0.89c0-0.08,0.08-0.23,0.25-0.44c0.17-0.21,0.53-0.42,1.08-0.63    c0.55-0.21,1.08-0.32,1.59-0.32l0.51,0.13l3.04-0.13c4.06,0,7.99,0.89,11.8,2.66l-0.13-19.79c0-6.09,0.08-12.09,0.25-18.01    c0.34-4.14,2.41-6.93,6.22-8.37c2.71-1.1,5.54-1.65,8.5-1.65c1.52,0,3,0.08,4.44,0.25c0.68,0.25,1.06,0.59,1.14,1.01    c0,0.51-0.17,0.95-0.51,1.33c-0.34,0.38-0.93,0.57-1.78,0.57c-1.35,0-3.59,0.3-6.72,0.89c-1.78,0.34-3.34,0.97-4.69,1.9    c-1.35,1.61-2.11,3.55-2.28,5.83c-0.17,1.78-0.25,4.06-0.25,6.85l0.13,2.28c0,0.68-0.04,1.31-0.13,1.9v24.99    c3.89-1.78,7.86-2.66,11.92-2.66c3.81,0,5.83,0.38,6.09,1.14c0.08-0.59,0.27-1.21,0.57-1.84c0.3-0.63,0.74-1.22,1.33-1.78    c0.59-0.55,1.27-0.83,2.03-0.83c0.17,0,0.3,0.04,0.38,0.13c2.2,0.42,4.02,0.93,5.45,1.52c1.27-2.28,2.96-4.1,5.07-5.45l-0.51-0.13    c-1.69,0-2.79-0.46-3.3-1.4c-0.76-1.18-1.14-2.41-1.14-3.68s0.55-2.11,1.65-2.54c2.11-0.59,5.16-0.89,9.13-0.89h2.66    c3.64,0,6.89,0.3,9.77,0.89c0.59,0.17,1.03,0.49,1.33,0.95c0.29,0.46,0.44,0.87,0.44,1.2c0,0.25-0.04,0.47-0.13,0.63    c0,2.2-0.76,3.68-2.28,4.44c-0.09,0.08-0.21,0.13-0.38,0.13c-0.17,0-0.34,0.04-0.51,0.13h-0.38l-0.13,0.13c0,0.08,0,0.15,0,0.19    c0,0.04,0.13,0.11,0.38,0.19c1.86,1.35,3.38,3.04,4.57,5.07l5.71-1.52c1.52,0,2.71,0.97,3.55,2.92c0.25,0.68,0.38,1.69,0.38,3.04    c-0.08,0.59-0.55,1.19-1.4,1.78l-7.61,2.92c-0.34,1.86-0.51,3.72-0.51,5.58c0,7.53-2.66,13.74-7.99,18.65l-0.25,0.25h5.46V160.12z     M139.83,46.21c-3.13,0-6.89-0.25-11.29-0.76c-5.33-1.01-10.49-1.52-15.47-1.52l-5.58,0.13c-4.65,0.42-8.63,0.63-11.92,0.63    c-8.71,0-13.06-0.42-13.06-1.27c1.61-1.1,3.89-1.82,6.85-2.16c6.34,0,12.13-0.76,17.38-2.28c2.62-0.68,5.83-1.01,9.64-1.01    s8.2,0.34,13.19,1.01c3.21,0.59,6.22,0.89,9.01,0.89c3.8,0,7.21-0.59,10.21-1.78c3-1.18,6.19-2.16,9.58-2.92    c-2.62-1.44-3.93-2.66-3.93-3.68v-0.13c0.17-1.1,1.06-1.65,2.66-1.65c1.52,0,2.96,1.61,4.31,4.82c1.1-2.79,2.54-4.19,4.31-4.19    h0.76c0.76,0.34,1.14,0.8,1.14,1.4c0,1.01-1.1,2.37-3.3,4.06c2.87,1.1,4.31,2.5,4.31,4.19c0,1.78-2.11,2.75-6.34,2.92    c-1.27-0.25-2.54-0.38-3.81-0.38c-2.88,0-5.58,0.63-8.12,1.9C148.15,45.62,144.65,46.21,139.83,46.21z M139.83,46.34    c-3.13,0-6.89-0.25-11.29-0.76c-5.33-1.01-10.49-1.52-15.47-1.52l-5.58,0.13c-4.65,0.42-8.63,0.63-11.92,0.63    c-8.71,0-13.06-0.42-13.06-1.27c1.61-1.1,3.89-1.82,6.85-2.16c6.34,0,12.13-0.76,17.38-2.28c2.62-0.68,5.83-1.01,9.64-1.01    s8.2,0.34,13.19,1.01c3.21,0.59,6.22,0.89,9.01,0.89c3.8,0,7.21-0.59,10.21-1.78c3-1.18,6.19-2.16,9.58-2.92    c-2.62-1.44-3.93-2.66-3.93-3.68V31.5c0.17-1.1,1.06-1.65,2.66-1.65c1.52,0,2.96,1.61,4.31,4.82c1.1-2.79,2.54-4.19,4.31-4.19    h0.76c0.76,0.34,1.14,0.8,1.14,1.4c0,1.01-1.1,2.37-3.3,4.06c2.87,1.1,4.31,2.5,4.31,4.19c0,1.78-2.11,2.75-6.34,2.92    c-1.27-0.25-2.54-0.38-3.81-0.38c-2.88,0-5.58,0.63-8.12,1.9C148.15,45.75,144.65,46.34,139.83,46.34z M113.44,128.28    c-0.17-0.68-0.25-1.35-0.25-2.03c0-0.93,0.17-1.82,0.51-2.66l-4.69-1.39c-1.27,0.42-1.9,1.27-1.9,2.54c0,0.34,0.08,0.68,0.25,1.01    l2.28,1.02C110.91,127.18,112.17,127.69,113.44,128.28z M113.44,128.41c-0.17-0.68-0.25-1.35-0.25-2.03    c0-0.93,0.17-1.82,0.51-2.66l-4.69-1.4c-1.27,0.42-1.9,1.27-1.9,2.54c0,0.34,0.08,0.68,0.25,1.01l2.28,1.01    C110.91,127.31,112.17,127.82,113.44,128.41z M133.36,96.82c-7.19,0-12.62-0.93-16.3-2.79c-3.68-1.86-5.9-3.34-6.66-4.44    c-0.76-1.1-1.14-2.49-1.14-4.19c0-3.55,2.41-5.75,7.23-6.6l0.38,2.03c-2.88,0.42-4.31,2.07-4.31,4.95c0,2.2,2.16,4.08,6.47,5.64    c4.31,1.57,9.09,2.35,14.33,2.35c5.33,0,10.15-0.78,14.46-2.35c4.31-1.56,6.47-3.44,6.47-5.64c0-2.87-1.48-4.52-4.44-4.95    l0.51-2.03c4.82,0.85,7.23,3.04,7.23,6.6c0,1.69-0.38,3.09-1.14,4.19c-0.76,1.1-2.98,2.58-6.66,4.44    C146.1,95.9,140.63,96.82,133.36,96.82z M133.36,96.95c-7.19,0-12.62-0.93-16.3-2.79c-3.68-1.86-5.9-3.34-6.66-4.44    c-0.76-1.1-1.14-2.49-1.14-4.19c0-3.55,2.41-5.75,7.23-6.6l0.38,2.03c-2.88,0.42-4.31,2.07-4.31,4.95c0,2.2,2.16,4.08,6.47,5.64    c4.31,1.57,9.09,2.35,14.33,2.35c5.33,0,10.15-0.78,14.46-2.35c4.31-1.56,6.47-3.44,6.47-5.64c0-2.87-1.48-4.52-4.44-4.95    l0.51-2.03c4.82,0.85,7.23,3.04,7.23,6.6c0,1.69-0.38,3.09-1.14,4.19c-0.76,1.1-2.98,2.58-6.66,4.44    C146.1,96.02,140.63,96.95,133.36,96.95z M151.88,99.74h-37.04v-1.52h37.04V99.74z M151.88,99.87h-37.04v-1.52h37.04V99.87z     M142.24,128.16c2.03-0.68,4.02-1.44,5.96-2.28c0.17-0.42,0.25-0.8,0.25-1.14c0-0.34-0.08-0.74-0.25-1.21    c-0.17-0.46-0.68-0.91-1.52-1.33l-4.69,1.27c0.42,0.85,0.63,1.73,0.63,2.66C142.62,126.8,142.49,127.48,142.24,128.16z     M142.24,128.28c2.03-0.68,4.02-1.44,5.96-2.28c0.17-0.42,0.25-0.8,0.25-1.14c0-0.34-0.08-0.74-0.25-1.21    c-0.17-0.46-0.68-0.91-1.52-1.33l-4.69,1.27c0.42,0.85,0.63,1.73,0.63,2.66C142.62,126.93,142.49,127.61,142.24,128.28z     M171.79,113.06h-5.58l0.38-41.22l-4.95-0.51c-10.49-0.76-15.84-1.29-16.05-1.59c-0.21-0.3-0.32-3.83-0.32-10.59    c0-0.59,0.29-0.93,0.89-1.01l21.31-0.89v0.13h2.92L171.79,113.06z M171.79,113.19h-5.58l0.38-41.22l-4.95-0.51    c-10.49-0.76-15.84-1.29-16.05-1.59c-0.21-0.29-0.32-3.83-0.32-10.59c0-0.59,0.29-0.93,0.89-1.01l21.31-0.89v0.13h2.92    L171.79,113.19z M153.52,157.08c-0.68,0-1.18-0.72-1.52-2.16l0.51-9.77c-0.68-0.59-1.01-1.14-1.01-1.65c0-0.42,0.3-0.89,0.89-1.4    l0.51-10.78c0.59-0.68,1.1-1.02,1.52-1.02c0.42,0,0.76,0.47,1.01,1.4l-0.76,10.91c1.1,0.25,2.16,0.38,3.17,0.38    c1.27,0,2.49-0.13,3.68-0.38c2.79-6.51,4.35-11.8,4.69-15.86l2.03-1.9l0.63,0.76c-1.01,5.5-2.79,11.21-5.33,17.12    c0.25,0.34,0.38,0.63,0.38,0.89c0,0.59-0.59,1.14-1.78,1.65c-2.54,4.14-4.21,6.68-5.01,7.61c-0.8,0.93-1.42,1.5-1.84,1.71    c-0.42,0.21-0.63,0.57-0.63,1.08l0.13,0.63C154.29,156.82,153.86,157.08,153.52,157.08z M153.52,157.2    c-0.68,0-1.18-0.72-1.52-2.16l0.51-9.77c-0.68-0.59-1.01-1.14-1.01-1.65c0-0.42,0.3-0.89,0.89-1.4l0.51-10.78    c0.59-0.68,1.1-1.01,1.52-1.01c0.42,0,0.76,0.47,1.01,1.4l-0.76,10.91c1.1,0.25,2.16,0.38,3.17,0.38c1.27,0,2.49-0.13,3.68-0.38    c2.79-6.51,4.35-11.8,4.69-15.86l2.03-1.9l0.63,0.76c-1.01,5.5-2.79,11.21-5.33,17.12c0.25,0.34,0.38,0.63,0.38,0.89    c0,0.59-0.59,1.14-1.78,1.65c-2.54,4.14-4.21,6.68-5.01,7.61c-0.8,0.93-1.42,1.5-1.84,1.71c-0.42,0.21-0.63,0.57-0.63,1.08    l0.13,0.63C154.29,156.95,153.86,157.2,153.52,157.2z M153.91,153.4c2.37-2.54,4.52-5.5,6.47-8.88c-1.44-0.17-2.79-0.25-4.06-0.25    h-1.9L153.91,153.4z M153.91,153.52c2.37-2.54,4.52-5.5,6.47-8.88c-1.44-0.17-2.79-0.25-4.06-0.25h-1.9L153.91,153.52z"/>

</g>

</g>

</svg>