<?xml version="1.0" ?>

<!-- Uploaded to: SVG Repo, www.svgrepo.com, Generator: SVG Repo Mixer Tools -->
<svg width="800px" height="800px" viewBox="0 0 192 192" id="Layer_1" version="1.1" xml:space="preserve" fill="#e6c200" xmlns="http://www.w3.org/2000/svg" xmlns:xlink="http://www.w3.org/1999/xlink">

<style type="text/css">
	.st0{fill:#E0E0E0;}
	.st1{fill:#FFFFFF;fill-opacity:0.2;}
	.st2{fill:#212121;fill-opacity:0.1;}
	.st3{fill:#616161;}
	.st4{fill:#FFFFFF;fill-opacity:0.1;}
	.st5{fill:#212121;fill-opacity:0.2;}
	.st6{fill:url(#SVGID_1_);}
	.st7{clip-path:url(#SVGID_3_);}
	.st8{fill:none;}
	.st9{clip-path:url(#SVGID_5_);}
	.st10{clip-path:url(#SVGID_7_);}
	.st11{fill:none;stroke:#000000;stroke-width:0.25;stroke-miterlimit:10;}
	.st12{clip-path:url(#SVGID_9_);}
	.st13{opacity:0.4;}
	.st14{clip-path:url(#SVGID_11_);}
	.st15{clip-path:url(#SVGID_13_);}
	.st16{clip-path:url(#SVGID_15_);}
	.st17{clip-path:url(#SVGID_17_);}
	.st18{clip-path:url(#SVGID_19_);}
	.st19{clip-path:url(#SVGID_21_);}
	.st20{fill:#DB4437;fill-opacity:0.4;}
	.st21{fill:url(#SVGID_22_);}
	.st22{clip-path:url(#SVGID_24_);}
	.st23{clip-path:url(#SVGID_26_);}
	.st24{clip-path:url(#SVGID_27_);}
	.st25{clip-path:url(#SVGID_29_);}
	.st26{clip-path:url(#SVGID_30_);}
	.st27{clip-path:url(#SVGID_31_);}
	.st28{clip-path:url(#SVGID_32_);}
	.st29{clip-path:url(#SVGID_33_);}
	.st30{clip-path:url(#SVGID_34_);}
	.st31{clip-path:url(#SVGID_36_);}
	.st32{fill:url(#SVGID_37_);}
	.st33{clip-path:url(#SVGID_39_);}
	.st34{clip-path:url(#SVGID_41_);}
	.st35{clip-path:url(#SVGID_42_);}
	.st36{clip-path:url(#SVGID_44_);}
	.st37{clip-path:url(#SVGID_45_);}
	.st38{clip-path:url(#SVGID_46_);}
	.st39{clip-path:url(#SVGID_47_);}
	.st40{clip-path:url(#SVGID_48_);}
	.st41{clip-path:url(#SVGID_49_);}
	.st42{clip-path:url(#SVGID_51_);}
	.st43{fill:url(#SVGID_52_);}
	.st44{clip-path:url(#SVGID_54_);}
	.st45{clip-path:url(#SVGID_56_);}
	.st46{clip-path:url(#SVGID_57_);}
	.st47{clip-path:url(#SVGID_59_);}
	.st48{clip-path:url(#SVGID_60_);}
	.st49{clip-path:url(#SVGID_61_);}
	.st50{clip-path:url(#SVGID_62_);}
	.st51{clip-path:url(#SVGID_63_);}
	.st52{clip-path:url(#SVGID_64_);}
	.st53{clip-path:url(#SVGID_66_);}
	.st54{fill:url(#SVGID_67_);}
	.st55{clip-path:url(#SVGID_69_);}
	.st56{clip-path:url(#SVGID_71_);}
	.st57{clip-path:url(#SVGID_72_);}
	.st58{clip-path:url(#SVGID_74_);}
	.st59{clip-path:url(#SVGID_75_);}
	.st60{clip-path:url(#SVGID_76_);}
	.st61{clip-path:url(#SVGID_77_);}
	.st62{clip-path:url(#SVGID_78_);}
	.st63{clip-path:url(#SVGID_79_);}
	.st64{clip-path:url(#SVGID_81_);}
	.st65{fill:url(#SVGID_82_);}
	.st66{clip-path:url(#SVGID_84_);}
	.st67{clip-path:url(#SVGID_86_);}
	.st68{clip-path:url(#SVGID_87_);}
	.st69{clip-path:url(#SVGID_89_);}
	.st70{clip-path:url(#SVGID_90_);}
	.st71{clip-path:url(#SVGID_91_);}
	.st72{clip-path:url(#SVGID_92_);}
	.st73{clip-path:url(#SVGID_93_);}
	.st74{clip-path:url(#SVGID_94_);}
	.st75{clip-path:url(#SVGID_96_);}
	.st76{fill:url(#SVGID_97_);}
	.st77{clip-path:url(#SVGID_99_);}
	.st78{clip-path:url(#SVGID_101_);}
	.st79{clip-path:url(#SVGID_102_);}
	.st80{clip-path:url(#SVGID_104_);}
	.st81{clip-path:url(#SVGID_105_);}
	.st82{clip-path:url(#SVGID_106_);}
	.st83{clip-path:url(#SVGID_107_);}
	.st84{clip-path:url(#SVGID_108_);}
	.st85{clip-path:url(#SVGID_109_);}
	.st86{clip-path:url(#SVGID_111_);}
	.st87{fill:url(#SVGID_112_);}
	.st88{clip-path:url(#SVGID_114_);}
	.st89{clip-path:url(#SVGID_116_);}
	.st90{clip-path:url(#SVGID_117_);}
	.st91{clip-path:url(#SVGID_119_);}
	.st92{clip-path:url(#SVGID_120_);}
	.st93{clip-path:url(#SVGID_121_);}
	.st94{clip-path:url(#SVGID_122_);}
	.st95{clip-path:url(#SVGID_123_);}
	.st96{clip-path:url(#SVGID_124_);}
	.st97{clip-path:url(#SVGID_126_);}
	.st98{fill:url(#SVGID_127_);}
	.st99{clip-path:url(#SVGID_129_);}
	.st100{clip-path:url(#SVGID_131_);}
	.st101{clip-path:url(#SVGID_132_);}
	.st102{clip-path:url(#SVGID_134_);}
	.st103{clip-path:url(#SVGID_135_);}
	.st104{clip-path:url(#SVGID_136_);}
	.st105{clip-path:url(#SVGID_137_);}
	.st106{clip-path:url(#SVGID_138_);}
	.st107{clip-path:url(#SVGID_139_);}
	.st108{clip-path:url(#SVGID_141_);}
	.st109{fill:url(#SVGID_142_);}
	.st110{clip-path:url(#SVGID_144_);}
	.st111{clip-path:url(#SVGID_146_);}
	.st112{clip-path:url(#SVGID_147_);}
	.st113{clip-path:url(#SVGID_149_);}
	.st114{clip-path:url(#SVGID_150_);}
	.st115{clip-path:url(#SVGID_151_);}
	.st116{clip-path:url(#SVGID_152_);}
	.st117{clip-path:url(#SVGID_153_);}
	.st118{clip-path:url(#SVGID_154_);}
	.st119{clip-path:url(#SVGID_156_);}
	.st120{fill:url(#SVGID_157_);}
	.st121{clip-path:url(#SVGID_159_);}
	.st122{clip-path:url(#SVGID_161_);}
	.st123{clip-path:url(#SVGID_162_);}
	.st124{clip-path:url(#SVGID_164_);}
	.st125{clip-path:url(#SVGID_165_);}
	.st126{clip-path:url(#SVGID_166_);}
	.st127{clip-path:url(#SVGID_167_);}
	.st128{clip-path:url(#SVGID_168_);}
	.st129{clip-path:url(#SVGID_169_);}
	.st130{clip-path:url(#SVGID_171_);}
	.st131{fill:url(#SVGID_172_);}
	.st132{clip-path:url(#SVGID_174_);}
	.st133{clip-path:url(#SVGID_176_);}
	.st134{clip-path:url(#SVGID_177_);}
	.st135{clip-path:url(#SVGID_179_);}
	.st136{clip-path:url(#SVGID_180_);}
	.st137{clip-path:url(#SVGID_181_);}
	.st138{clip-path:url(#SVGID_182_);}
	.st139{clip-path:url(#SVGID_183_);}
	.st140{clip-path:url(#SVGID_184_);}
	.st141{clip-path:url(#SVGID_186_);}
	.st142{fill:url(#SVGID_187_);}
	.st143{clip-path:url(#SVGID_189_);}
	.st144{clip-path:url(#SVGID_191_);}
	.st145{clip-path:url(#SVGID_192_);}
	.st146{clip-path:url(#SVGID_194_);}
	.st147{clip-path:url(#SVGID_195_);}
	.st148{clip-path:url(#SVGID_196_);}
	.st149{clip-path:url(#SVGID_197_);}
	.st150{clip-path:url(#SVGID_198_);}
	.st151{clip-path:url(#SVGID_199_);}
	.st152{clip-path:url(#SVGID_201_);}
	.st153{fill:url(#SVGID_202_);}
	.st154{clip-path:url(#SVGID_204_);}
	.st155{clip-path:url(#SVGID_206_);}
	.st156{clip-path:url(#SVGID_207_);}
	.st157{clip-path:url(#SVGID_209_);}
	.st158{clip-path:url(#SVGID_210_);}
	.st159{clip-path:url(#SVGID_211_);}
	.st160{clip-path:url(#SVGID_212_);}
	.st161{clip-path:url(#SVGID_213_);}
	.st162{clip-path:url(#SVGID_214_);}
	.st163{clip-path:url(#SVGID_216_);}
	.st164{fill:url(#SVGID_217_);}
	.st165{clip-path:url(#SVGID_219_);}
	.st166{clip-path:url(#SVGID_221_);}
	.st167{clip-path:url(#SVGID_222_);}
	.st168{clip-path:url(#SVGID_224_);}
	.st169{clip-path:url(#SVGID_225_);}
	.st170{clip-path:url(#SVGID_226_);}
	.st171{clip-path:url(#SVGID_227_);}
	.st172{clip-path:url(#SVGID_228_);}
	.st173{clip-path:url(#SVGID_229_);}
	.st174{clip-path:url(#SVGID_231_);}
	.st175{fill:url(#SVGID_232_);}
	.st176{clip-path:url(#SVGID_234_);}
	.st177{clip-path:url(#SVGID_236_);}
	.st178{clip-path:url(#SVGID_237_);}
	.st179{clip-path:url(#SVGID_239_);}
	.st180{clip-path:url(#SVGID_240_);}
	.st181{clip-path:url(#SVGID_241_);}
	.st182{clip-path:url(#SVGID_242_);}
	.st183{clip-path:url(#SVGID_243_);}
	.st184{clip-path:url(#SVGID_244_);}
	.st185{clip-path:url(#SVGID_246_);}
	.st186{fill:url(#SVGID_247_);}
	.st187{clip-path:url(#SVGID_249_);}
	.st188{clip-path:url(#SVGID_251_);}
	.st189{clip-path:url(#SVGID_252_);}
	.st190{clip-path:url(#SVGID_254_);}
	.st191{clip-path:url(#SVGID_255_);}
	.st192{clip-path:url(#SVGID_256_);}
	.st193{clip-path:url(#SVGID_257_);}
	.st194{clip-path:url(#SVGID_258_);}
	.st195{clip-path:url(#SVGID_259_);}
	.st196{clip-path:url(#SVGID_261_);}
	.st197{fill:url(#SVGID_262_);}
	.st198{clip-path:url(#SVGID_264_);}
	.st199{clip-path:url(#SVGID_266_);}
	.st200{clip-path:url(#SVGID_267_);}
	.st201{clip-path:url(#SVGID_269_);}
	.st202{clip-path:url(#SVGID_270_);}
	.st203{clip-path:url(#SVGID_271_);}
	.st204{clip-path:url(#SVGID_272_);}
	.st205{clip-path:url(#SVGID_273_);}
	.st206{clip-path:url(#SVGID_274_);}
	.st207{clip-path:url(#SVGID_276_);}
	.st208{fill:url(#SVGID_277_);}
	.st209{clip-path:url(#SVGID_279_);}
	.st210{clip-path:url(#SVGID_281_);}
	.st211{clip-path:url(#SVGID_282_);}
	.st212{clip-path:url(#SVGID_284_);}
	.st213{clip-path:url(#SVGID_285_);}
	.st214{clip-path:url(#SVGID_286_);}
	.st215{clip-path:url(#SVGID_287_);}
	.st216{clip-path:url(#SVGID_288_);}
	.st217{clip-path:url(#SVGID_289_);}
	.st218{clip-path:url(#SVGID_291_);}
	.st219{fill:url(#SVGID_292_);}
	.st220{clip-path:url(#SVGID_294_);}
	.st221{clip-path:url(#SVGID_296_);}
	.st222{clip-path:url(#SVGID_297_);}
	.st223{clip-path:url(#SVGID_299_);}
	.st224{clip-path:url(#SVGID_300_);}
	.st225{clip-path:url(#SVGID_301_);}
	.st226{clip-path:url(#SVGID_302_);}
	.st227{clip-path:url(#SVGID_303_);}
	.st228{clip-path:url(#SVGID_304_);}
	.st229{clip-path:url(#SVGID_306_);}
	.st230{fill:url(#SVGID_307_);}
	.st231{clip-path:url(#SVGID_309_);}
	.st232{clip-path:url(#SVGID_311_);}
	.st233{clip-path:url(#SVGID_312_);}
	.st234{clip-path:url(#SVGID_314_);}
	.st235{clip-path:url(#SVGID_315_);}
	.st236{clip-path:url(#SVGID_316_);}
	.st237{clip-path:url(#SVGID_317_);}
	.st238{clip-path:url(#SVGID_318_);}
	.st239{clip-path:url(#SVGID_319_);}
	.st240{clip-path:url(#SVGID_321_);}
	.st241{fill:url(#SVGID_322_);}
	.st242{clip-path:url(#SVGID_324_);}
	.st243{clip-path:url(#SVGID_326_);}
	.st244{clip-path:url(#SVGID_327_);}
	.st245{clip-path:url(#SVGID_329_);}
	.st246{clip-path:url(#SVGID_330_);}
	.st247{clip-path:url(#SVGID_331_);}
	.st248{clip-path:url(#SVGID_332_);}
	.st249{clip-path:url(#SVGID_333_);}
	.st250{clip-path:url(#SVGID_334_);}
	.st251{clip-path:url(#SVGID_336_);}
	.st252{fill:url(#SVGID_337_);}
	.st253{clip-path:url(#SVGID_339_);}
	.st254{clip-path:url(#SVGID_341_);}
	.st255{clip-path:url(#SVGID_342_);}
	.st256{clip-path:url(#SVGID_344_);}
	.st257{clip-path:url(#SVGID_345_);}
	.st258{clip-path:url(#SVGID_346_);}
	.st259{clip-path:url(#SVGID_347_);}
	.st260{clip-path:url(#SVGID_348_);}
	.st261{clip-path:url(#SVGID_349_);}
	.st262{clip-path:url(#SVGID_351_);}
	.st263{fill:url(#SVGID_352_);}
	.st264{clip-path:url(#SVGID_354_);}
	.st265{clip-path:url(#SVGID_356_);}
	.st266{clip-path:url(#SVGID_357_);}
	.st267{clip-path:url(#SVGID_359_);}
	.st268{clip-path:url(#SVGID_360_);}
	.st269{clip-path:url(#SVGID_361_);}
	.st270{clip-path:url(#SVGID_362_);}
	.st271{clip-path:url(#SVGID_363_);}
	.st272{clip-path:url(#SVGID_364_);}
	.st273{clip-path:url(#SVGID_366_);}
	.st274{fill:url(#SVGID_367_);}
	.st275{clip-path:url(#SVGID_369_);}
	.st276{clip-path:url(#SVGID_371_);}
	.st277{clip-path:url(#SVGID_372_);}
	.st278{clip-path:url(#SVGID_374_);}
	.st279{clip-path:url(#SVGID_375_);}
	.st280{clip-path:url(#SVGID_376_);}
	.st281{clip-path:url(#SVGID_377_);}
	.st282{clip-path:url(#SVGID_378_);}
	.st283{clip-path:url(#SVGID_379_);}
	.st284{clip-path:url(#SVGID_381_);}
	.st285{fill:url(#SVGID_382_);}
	.st286{clip-path:url(#SVGID_384_);}
	.st287{clip-path:url(#SVGID_386_);}
	.st288{clip-path:url(#SVGID_387_);}
	.st289{clip-path:url(#SVGID_389_);}
	.st290{clip-path:url(#SVGID_390_);}
	.st291{clip-path:url(#SVGID_391_);}
	.st292{clip-path:url(#SVGID_392_);}
	.st293{clip-path:url(#SVGID_393_);}
	.st294{clip-path:url(#SVGID_394_);}
	.st295{clip-path:url(#SVGID_396_);}
	.st296{fill:url(#SVGID_397_);}
	.st297{clip-path:url(#SVGID_399_);}
	.st298{clip-path:url(#SVGID_401_);}
	.st299{clip-path:url(#SVGID_402_);}
	.st300{clip-path:url(#SVGID_404_);}
	.st301{clip-path:url(#SVGID_405_);}
	.st302{clip-path:url(#SVGID_406_);}
	.st303{clip-path:url(#SVGID_407_);}
	.st304{clip-path:url(#SVGID_408_);}
	.st305{clip-path:url(#SVGID_409_);}
	.st306{clip-path:url(#SVGID_411_);}
</style>

<g>

<g>

<path d="M80.72,45.58l-9.01-2.92H29.34l-9.01,2.92v-9.13h60.38V45.58z M80.72,45.71l-9.01-2.92H29.34l-9.01,2.92v-9.13h60.38    V45.71z M55.47,163.93h-9.77c0-15.81,0.17-31.29,0.51-46.42c-6.85-2.2-11.99-5.16-15.41-8.88c-3.42-3.72-5.52-7.27-6.28-10.65    v-0.25c0-1.18,0.51-1.78,1.52-1.78l1.01,0.13c8.79,4.14,15.18,6.39,19.15,6.72c0.42-6.76,0.84-16.11,1.27-28.03    c0.25-11.58,1.27-18.14,3.04-19.66c1.69,1.52,2.71,8.08,3.04,19.66c0.42,11.92,0.84,21.27,1.27,28.03    c3.97-0.34,10.4-2.58,19.28-6.72l0.89-0.13c1.01,0,1.52,0.51,1.52,1.52v0.51c-0.68,3.38-2.75,6.93-6.22,10.65    c-3.47,3.72-8.63,6.68-15.48,8.88C55.18,132.64,55.39,148.11,55.47,163.93z M55.47,164.05h-9.77c0-15.81,0.17-31.29,0.51-46.42    c-6.85-2.2-11.99-5.16-15.41-8.88c-3.42-3.72-5.52-7.27-6.28-10.65v-0.25c0-1.18,0.51-1.78,1.52-1.78l1.01,0.13    c8.79,4.14,15.18,6.39,19.15,6.72c0.42-6.76,0.84-16.11,1.27-28.03c0.25-11.58,1.27-18.14,3.04-19.66    c1.69,1.52,2.71,8.08,3.04,19.66c0.42,11.92,0.84,21.27,1.27,28.03c3.97-0.34,10.4-2.58,19.28-6.72l0.89-0.13    c1.01,0,1.52,0.51,1.52,1.52v0.51c-0.68,3.38-2.75,6.93-6.22,10.65c-3.47,3.72-8.63,6.68-15.48,8.88    C55.18,132.77,55.39,148.24,55.47,164.05z M46.21,113.44v-6.21c-5.5-1.01-11.37-3.34-17.63-6.98c0.59,1.78,2.62,4.02,6.09,6.72    C38.14,109.68,41.98,111.84,46.21,113.44z M46.21,113.57v-6.21c-5.5-1.02-11.37-3.34-17.63-6.98c0.59,1.78,2.62,4.02,6.09,6.72    C38.14,109.81,41.98,111.96,46.21,113.57z M54.84,113.44c4.31-1.61,8.18-3.76,11.61-6.47c3.42-2.71,5.43-4.95,6.02-6.72    c-6.26,3.64-12.14,5.96-17.63,6.98V113.44z M54.84,113.57c4.31-1.61,8.18-3.76,11.61-6.47c3.42-2.71,5.43-4.95,6.02-6.72    c-6.26,3.64-12.14,5.96-17.63,6.98V113.57z M142.24,163.93H92.39v-11.8h13.45c-5.24-4.4-9.39-9.81-12.43-16.24    c-3.47-6.26-5.67-12.94-6.6-20.04c-0.42-3.63-0.68-7.27-0.76-10.91c-0.17-4.57-0.59-9.09-1.27-13.57    c-8.03-3.13-14.21-5.67-18.52-7.61c-2.2-1.52-3.3-3.89-3.3-7.1c0-3.72,1.48-6.98,4.44-9.77c1.44-1.35,3.09-2.03,4.95-2.03    c0.84,0,3.85,0.8,9.01,2.41l4.82,1.4c3.04-5.5,7.06-9.98,12.05-13.45l-1.4-0.25c-1.44-0.08-2.88-0.34-4.31-0.76    c-1.44-0.42-2.58-1.31-3.42-2.66c-1.78-2.96-2.66-6.04-2.66-9.26c0-0.93,0.08-1.9,0.25-2.92c0.76-1.61,1.9-2.68,3.42-3.23    c1.52-0.55,3.09-0.95,4.69-1.21l1.27-0.13c6.17-0.76,12.3-1.14,18.39-1.14h6.09c7.1,0,14.12,0.76,21.06,2.28    c1.52,0.42,2.66,1.31,3.42,2.66c0.59,1.02,0.89,2.11,0.89,3.3l-0.13,1.14c-0.42,5.5-2.24,9.13-5.45,10.91    c-0.25,0.17-0.57,0.3-0.95,0.38c-0.38,0.08-0.74,0.17-1.08,0.25c-1.1,0-1.65,0.17-1.65,0.51c0,0.17,0.38,0.47,1.14,0.89    c4.48,3.38,8.12,7.61,10.91,12.68c5.5-1.78,9.89-3.04,13.19-3.81c2.2,0,4.06,0.72,5.58,2.16c2.79,2.79,4.19,5.96,4.19,9.51    c0,0.59-0.09,1.63-0.25,3.11c-0.17,1.48-1.19,2.85-3.04,4.12c-6,2.54-12.05,5.03-18.14,7.48c-0.76,4.57-1.18,9.22-1.27,13.95    c0,7.1-1.06,14.04-3.17,20.8c-1.78,4.82-3.91,9.45-6.41,13.89c-2.5,4.44-5.64,8.31-9.45,11.61c-0.25,0.17-0.44,0.32-0.57,0.44    c-0.13,0.13-0.23,0.19-0.32,0.19h13.19V163.93z M142.24,164.05H92.39v-11.8h13.45c-5.24-4.4-9.39-9.81-12.43-16.24    c-3.47-6.26-5.67-12.94-6.6-20.04c-0.42-3.63-0.68-7.27-0.76-10.91c-0.17-4.57-0.59-9.09-1.27-13.57    c-8.03-3.13-14.21-5.66-18.52-7.61c-2.2-1.52-3.3-3.89-3.3-7.1c0-3.72,1.48-6.98,4.44-9.77c1.44-1.35,3.09-2.03,4.95-2.03    c0.84,0,3.85,0.8,9.01,2.41l4.82,1.4c3.04-5.5,7.06-9.98,12.05-13.45l-1.4-0.25c-1.44-0.08-2.88-0.34-4.31-0.76    c-1.44-0.42-2.58-1.31-3.42-2.66c-1.78-2.96-2.66-6.04-2.66-9.26c0-0.93,0.08-1.9,0.25-2.92c0.76-1.61,1.9-2.68,3.42-3.23    c1.52-0.55,3.09-0.95,4.69-1.2l1.27-0.13c6.17-0.76,12.3-1.14,18.39-1.14h6.09c7.1,0,14.12,0.76,21.06,2.28    c1.52,0.42,2.66,1.31,3.42,2.66c0.59,1.01,0.89,2.11,0.89,3.3l-0.13,1.14c-0.42,5.5-2.24,9.13-5.45,10.91    c-0.25,0.17-0.57,0.3-0.95,0.38c-0.38,0.08-0.74,0.17-1.08,0.25c-1.1,0-1.65,0.17-1.65,0.51c0,0.17,0.38,0.47,1.14,0.89    c4.48,3.38,8.12,7.61,10.91,12.68c5.5-1.78,9.89-3.04,13.19-3.81c2.2,0,4.06,0.72,5.58,2.16c2.79,2.79,4.19,5.96,4.19,9.51    c0,0.59-0.09,1.63-0.25,3.11c-0.17,1.48-1.19,2.85-3.04,4.12c-6,2.54-12.05,5.03-18.14,7.48c-0.76,4.57-1.18,9.22-1.27,13.95    c0,7.1-1.06,14.04-3.17,20.8c-1.78,4.82-3.91,9.45-6.41,13.89c-2.5,4.44-5.64,8.31-9.45,11.61c-0.25,0.17-0.44,0.32-0.57,0.44    c-0.13,0.13-0.23,0.19-0.32,0.19h13.19V164.05z M83.13,85.15c-0.42-1.69-0.63-3.3-0.63-4.82c0-2.37,0.46-4.65,1.4-6.85    c-2.03-0.59-4-1.18-5.9-1.78c-1.9-0.59-3.79-1.14-5.64-1.65c-1.69,0.59-2.92,1.78-3.68,3.55c-0.51,1.01-0.76,2.03-0.76,3.04    c0,0.76,0.17,1.52,0.51,2.28c1.1,0.68,2.28,1.23,3.55,1.65c2.11,0.76,4.44,1.69,6.98,2.79L83.13,85.15z M83.13,85.28    c-0.42-1.69-0.63-3.3-0.63-4.82c0-2.37,0.46-4.65,1.4-6.85c-2.03-0.59-4-1.18-5.9-1.78c-1.9-0.59-3.79-1.14-5.64-1.65    c-1.69,0.59-2.92,1.78-3.68,3.55c-0.51,1.01-0.76,2.03-0.76,3.04c0,0.76,0.17,1.52,0.51,2.28c1.1,0.68,2.28,1.23,3.55,1.65    c2.11,0.76,4.44,1.69,6.98,2.79L83.13,85.28z M151.88,85.03l14.08-5.83c0.51-0.93,0.76-1.86,0.76-2.79c0-2.79-1.27-4.86-3.81-6.22    l-0.63-0.13l-11.16,3.3c0.93,2.28,1.39,4.61,1.39,6.98C152.51,81.86,152.3,83.42,151.88,85.03z M151.88,85.15l14.08-5.83    c0.51-0.93,0.76-1.86,0.76-2.79c0-2.79-1.27-4.86-3.81-6.22l-0.63-0.13l-11.16,3.3c0.93,2.28,1.39,4.61,1.39,6.98    C152.51,81.98,152.3,83.55,151.88,85.15z"/>

</g>

</g>

</svg>