<?xml version="1.0" ?>

<!-- Uploaded to: SVG Repo, www.svgrepo.com, Generator: SVG Repo Mixer Tools -->
<svg width="800px" height="800px" fill="#e6c200" viewBox="0 0 192 192" id="Layer_1" version="1.1" xml:space="preserve" xmlns="http://www.w3.org/2000/svg" xmlns:xlink="http://www.w3.org/1999/xlink">

<style type="text/css">
	.st0{fill:#E0E0E0;}
	.st1{fill:#FFFFFF;fill-opacity:0.2;}
	.st2{fill:#212121;fill-opacity:0.1;}
	.st3{fill:#616161;}
	.st4{fill:#FFFFFF;fill-opacity:0.1;}
	.st5{fill:#212121;fill-opacity:0.2;}
	.st6{fill:url(#SVGID_1_);}
	.st7{clip-path:url(#SVGID_3_);}
	.st8{fill:none;}
	.st9{clip-path:url(#SVGID_5_);}
	.st10{clip-path:url(#SVGID_7_);}
	.st11{fill:none;stroke:#000000;stroke-width:0.25;stroke-miterlimit:10;}
	.st12{clip-path:url(#SVGID_9_);}
	.st13{opacity:0.4;}
	.st14{clip-path:url(#SVGID_11_);}
	.st15{clip-path:url(#SVGID_13_);}
	.st16{clip-path:url(#SVGID_15_);}
	.st17{clip-path:url(#SVGID_17_);}
	.st18{clip-path:url(#SVGID_19_);}
	.st19{clip-path:url(#SVGID_21_);}
	.st20{fill:#DB4437;fill-opacity:0.4;}
	.st21{fill:url(#SVGID_22_);}
	.st22{clip-path:url(#SVGID_24_);}
	.st23{clip-path:url(#SVGID_26_);}
	.st24{clip-path:url(#SVGID_27_);}
	.st25{clip-path:url(#SVGID_29_);}
	.st26{clip-path:url(#SVGID_30_);}
	.st27{clip-path:url(#SVGID_31_);}
	.st28{clip-path:url(#SVGID_32_);}
	.st29{clip-path:url(#SVGID_33_);}
	.st30{clip-path:url(#SVGID_34_);}
	.st31{clip-path:url(#SVGID_36_);}
	.st32{fill:url(#SVGID_37_);}
	.st33{clip-path:url(#SVGID_39_);}
	.st34{clip-path:url(#SVGID_41_);}
	.st35{clip-path:url(#SVGID_42_);}
	.st36{clip-path:url(#SVGID_44_);}
	.st37{clip-path:url(#SVGID_45_);}
	.st38{clip-path:url(#SVGID_46_);}
	.st39{clip-path:url(#SVGID_47_);}
	.st40{clip-path:url(#SVGID_48_);}
	.st41{clip-path:url(#SVGID_49_);}
	.st42{clip-path:url(#SVGID_51_);}
	.st43{fill:url(#SVGID_52_);}
	.st44{clip-path:url(#SVGID_54_);}
	.st45{clip-path:url(#SVGID_56_);}
	.st46{clip-path:url(#SVGID_57_);}
	.st47{clip-path:url(#SVGID_59_);}
	.st48{clip-path:url(#SVGID_60_);}
	.st49{clip-path:url(#SVGID_61_);}
	.st50{clip-path:url(#SVGID_62_);}
	.st51{clip-path:url(#SVGID_63_);}
	.st52{clip-path:url(#SVGID_64_);}
	.st53{clip-path:url(#SVGID_66_);}
	.st54{fill:url(#SVGID_67_);}
	.st55{clip-path:url(#SVGID_69_);}
	.st56{clip-path:url(#SVGID_71_);}
	.st57{clip-path:url(#SVGID_72_);}
	.st58{clip-path:url(#SVGID_74_);}
	.st59{clip-path:url(#SVGID_75_);}
	.st60{clip-path:url(#SVGID_76_);}
	.st61{clip-path:url(#SVGID_77_);}
	.st62{clip-path:url(#SVGID_78_);}
	.st63{clip-path:url(#SVGID_79_);}
	.st64{clip-path:url(#SVGID_81_);}
	.st65{fill:url(#SVGID_82_);}
	.st66{clip-path:url(#SVGID_84_);}
	.st67{clip-path:url(#SVGID_86_);}
	.st68{clip-path:url(#SVGID_87_);}
	.st69{clip-path:url(#SVGID_89_);}
	.st70{clip-path:url(#SVGID_90_);}
	.st71{clip-path:url(#SVGID_91_);}
	.st72{clip-path:url(#SVGID_92_);}
	.st73{clip-path:url(#SVGID_93_);}
	.st74{clip-path:url(#SVGID_94_);}
	.st75{clip-path:url(#SVGID_96_);}
	.st76{fill:url(#SVGID_97_);}
	.st77{clip-path:url(#SVGID_99_);}
	.st78{clip-path:url(#SVGID_101_);}
	.st79{clip-path:url(#SVGID_102_);}
	.st80{clip-path:url(#SVGID_104_);}
	.st81{clip-path:url(#SVGID_105_);}
	.st82{clip-path:url(#SVGID_106_);}
	.st83{clip-path:url(#SVGID_107_);}
	.st84{clip-path:url(#SVGID_108_);}
	.st85{clip-path:url(#SVGID_109_);}
	.st86{clip-path:url(#SVGID_111_);}
	.st87{fill:url(#SVGID_112_);}
	.st88{clip-path:url(#SVGID_114_);}
	.st89{clip-path:url(#SVGID_116_);}
	.st90{clip-path:url(#SVGID_117_);}
	.st91{clip-path:url(#SVGID_119_);}
	.st92{clip-path:url(#SVGID_120_);}
	.st93{clip-path:url(#SVGID_121_);}
	.st94{clip-path:url(#SVGID_122_);}
	.st95{clip-path:url(#SVGID_123_);}
	.st96{clip-path:url(#SVGID_124_);}
	.st97{clip-path:url(#SVGID_126_);}
	.st98{fill:url(#SVGID_127_);}
	.st99{clip-path:url(#SVGID_129_);}
	.st100{clip-path:url(#SVGID_131_);}
	.st101{clip-path:url(#SVGID_132_);}
	.st102{clip-path:url(#SVGID_134_);}
	.st103{clip-path:url(#SVGID_135_);}
	.st104{clip-path:url(#SVGID_136_);}
	.st105{clip-path:url(#SVGID_137_);}
	.st106{clip-path:url(#SVGID_138_);}
	.st107{clip-path:url(#SVGID_139_);}
	.st108{clip-path:url(#SVGID_141_);}
	.st109{fill:url(#SVGID_142_);}
	.st110{clip-path:url(#SVGID_144_);}
	.st111{clip-path:url(#SVGID_146_);}
	.st112{clip-path:url(#SVGID_147_);}
	.st113{clip-path:url(#SVGID_149_);}
	.st114{clip-path:url(#SVGID_150_);}
	.st115{clip-path:url(#SVGID_151_);}
	.st116{clip-path:url(#SVGID_152_);}
	.st117{clip-path:url(#SVGID_153_);}
	.st118{clip-path:url(#SVGID_154_);}
	.st119{clip-path:url(#SVGID_156_);}
	.st120{fill:url(#SVGID_157_);}
	.st121{clip-path:url(#SVGID_159_);}
	.st122{clip-path:url(#SVGID_161_);}
	.st123{clip-path:url(#SVGID_162_);}
	.st124{clip-path:url(#SVGID_164_);}
	.st125{clip-path:url(#SVGID_165_);}
	.st126{clip-path:url(#SVGID_166_);}
	.st127{clip-path:url(#SVGID_167_);}
	.st128{clip-path:url(#SVGID_168_);}
	.st129{clip-path:url(#SVGID_169_);}
	.st130{clip-path:url(#SVGID_171_);}
	.st131{fill:url(#SVGID_172_);}
	.st132{clip-path:url(#SVGID_174_);}
	.st133{clip-path:url(#SVGID_176_);}
	.st134{clip-path:url(#SVGID_177_);}
	.st135{clip-path:url(#SVGID_179_);}
	.st136{clip-path:url(#SVGID_180_);}
	.st137{clip-path:url(#SVGID_181_);}
	.st138{clip-path:url(#SVGID_182_);}
	.st139{clip-path:url(#SVGID_183_);}
	.st140{clip-path:url(#SVGID_184_);}
	.st141{clip-path:url(#SVGID_186_);}
	.st142{fill:url(#SVGID_187_);}
	.st143{clip-path:url(#SVGID_189_);}
	.st144{clip-path:url(#SVGID_191_);}
	.st145{clip-path:url(#SVGID_192_);}
	.st146{clip-path:url(#SVGID_194_);}
	.st147{clip-path:url(#SVGID_195_);}
	.st148{clip-path:url(#SVGID_196_);}
	.st149{clip-path:url(#SVGID_197_);}
	.st150{clip-path:url(#SVGID_198_);}
	.st151{clip-path:url(#SVGID_199_);}
	.st152{clip-path:url(#SVGID_201_);}
	.st153{fill:url(#SVGID_202_);}
	.st154{clip-path:url(#SVGID_204_);}
	.st155{clip-path:url(#SVGID_206_);}
	.st156{clip-path:url(#SVGID_207_);}
	.st157{clip-path:url(#SVGID_209_);}
	.st158{clip-path:url(#SVGID_210_);}
	.st159{clip-path:url(#SVGID_211_);}
	.st160{clip-path:url(#SVGID_212_);}
	.st161{clip-path:url(#SVGID_213_);}
	.st162{clip-path:url(#SVGID_214_);}
	.st163{clip-path:url(#SVGID_216_);}
	.st164{fill:url(#SVGID_217_);}
	.st165{clip-path:url(#SVGID_219_);}
	.st166{clip-path:url(#SVGID_221_);}
	.st167{clip-path:url(#SVGID_222_);}
	.st168{clip-path:url(#SVGID_224_);}
	.st169{clip-path:url(#SVGID_225_);}
	.st170{clip-path:url(#SVGID_226_);}
	.st171{clip-path:url(#SVGID_227_);}
	.st172{clip-path:url(#SVGID_228_);}
	.st173{clip-path:url(#SVGID_229_);}
	.st174{clip-path:url(#SVGID_231_);}
	.st175{fill:url(#SVGID_232_);}
	.st176{clip-path:url(#SVGID_234_);}
	.st177{clip-path:url(#SVGID_236_);}
	.st178{clip-path:url(#SVGID_237_);}
	.st179{clip-path:url(#SVGID_239_);}
	.st180{clip-path:url(#SVGID_240_);}
	.st181{clip-path:url(#SVGID_241_);}
	.st182{clip-path:url(#SVGID_242_);}
	.st183{clip-path:url(#SVGID_243_);}
	.st184{clip-path:url(#SVGID_244_);}
	.st185{clip-path:url(#SVGID_246_);}
	.st186{fill:url(#SVGID_247_);}
	.st187{clip-path:url(#SVGID_249_);}
	.st188{clip-path:url(#SVGID_251_);}
	.st189{clip-path:url(#SVGID_252_);}
	.st190{clip-path:url(#SVGID_254_);}
	.st191{clip-path:url(#SVGID_255_);}
	.st192{clip-path:url(#SVGID_256_);}
	.st193{clip-path:url(#SVGID_257_);}
	.st194{clip-path:url(#SVGID_258_);}
	.st195{clip-path:url(#SVGID_259_);}
	.st196{clip-path:url(#SVGID_261_);}
	.st197{fill:url(#SVGID_262_);}
	.st198{clip-path:url(#SVGID_264_);}
	.st199{clip-path:url(#SVGID_266_);}
	.st200{clip-path:url(#SVGID_267_);}
	.st201{clip-path:url(#SVGID_269_);}
	.st202{clip-path:url(#SVGID_270_);}
	.st203{clip-path:url(#SVGID_271_);}
	.st204{clip-path:url(#SVGID_272_);}
	.st205{clip-path:url(#SVGID_273_);}
	.st206{clip-path:url(#SVGID_274_);}
	.st207{clip-path:url(#SVGID_276_);}
	.st208{fill:url(#SVGID_277_);}
	.st209{clip-path:url(#SVGID_279_);}
	.st210{clip-path:url(#SVGID_281_);}
	.st211{clip-path:url(#SVGID_282_);}
	.st212{clip-path:url(#SVGID_284_);}
	.st213{clip-path:url(#SVGID_285_);}
	.st214{clip-path:url(#SVGID_286_);}
	.st215{clip-path:url(#SVGID_287_);}
	.st216{clip-path:url(#SVGID_288_);}
	.st217{clip-path:url(#SVGID_289_);}
	.st218{clip-path:url(#SVGID_291_);}
	.st219{fill:url(#SVGID_292_);}
	.st220{clip-path:url(#SVGID_294_);}
	.st221{clip-path:url(#SVGID_296_);}
	.st222{clip-path:url(#SVGID_297_);}
	.st223{clip-path:url(#SVGID_299_);}
	.st224{clip-path:url(#SVGID_300_);}
	.st225{clip-path:url(#SVGID_301_);}
	.st226{clip-path:url(#SVGID_302_);}
	.st227{clip-path:url(#SVGID_303_);}
	.st228{clip-path:url(#SVGID_304_);}
	.st229{clip-path:url(#SVGID_306_);}
	.st230{fill:url(#SVGID_307_);}
	.st231{clip-path:url(#SVGID_309_);}
	.st232{clip-path:url(#SVGID_311_);}
	.st233{clip-path:url(#SVGID_312_);}
	.st234{clip-path:url(#SVGID_314_);}
	.st235{clip-path:url(#SVGID_315_);}
	.st236{clip-path:url(#SVGID_316_);}
	.st237{clip-path:url(#SVGID_317_);}
	.st238{clip-path:url(#SVGID_318_);}
	.st239{clip-path:url(#SVGID_319_);}
	.st240{clip-path:url(#SVGID_321_);}
	.st241{fill:url(#SVGID_322_);}
	.st242{clip-path:url(#SVGID_324_);}
	.st243{clip-path:url(#SVGID_326_);}
	.st244{clip-path:url(#SVGID_327_);}
	.st245{clip-path:url(#SVGID_329_);}
	.st246{clip-path:url(#SVGID_330_);}
	.st247{clip-path:url(#SVGID_331_);}
	.st248{clip-path:url(#SVGID_332_);}
	.st249{clip-path:url(#SVGID_333_);}
	.st250{clip-path:url(#SVGID_334_);}
	.st251{clip-path:url(#SVGID_336_);}
	.st252{fill:url(#SVGID_337_);}
	.st253{clip-path:url(#SVGID_339_);}
	.st254{clip-path:url(#SVGID_341_);}
	.st255{clip-path:url(#SVGID_342_);}
	.st256{clip-path:url(#SVGID_344_);}
	.st257{clip-path:url(#SVGID_345_);}
	.st258{clip-path:url(#SVGID_346_);}
	.st259{clip-path:url(#SVGID_347_);}
	.st260{clip-path:url(#SVGID_348_);}
	.st261{clip-path:url(#SVGID_349_);}
	.st262{clip-path:url(#SVGID_351_);}
	.st263{fill:url(#SVGID_352_);}
	.st264{clip-path:url(#SVGID_354_);}
	.st265{clip-path:url(#SVGID_356_);}
	.st266{clip-path:url(#SVGID_357_);}
	.st267{clip-path:url(#SVGID_359_);}
	.st268{clip-path:url(#SVGID_360_);}
	.st269{clip-path:url(#SVGID_361_);}
	.st270{clip-path:url(#SVGID_362_);}
	.st271{clip-path:url(#SVGID_363_);}
	.st272{clip-path:url(#SVGID_364_);}
	.st273{clip-path:url(#SVGID_366_);}
	.st274{fill:url(#SVGID_367_);}
	.st275{clip-path:url(#SVGID_369_);}
	.st276{clip-path:url(#SVGID_371_);}
	.st277{clip-path:url(#SVGID_372_);}
	.st278{clip-path:url(#SVGID_374_);}
	.st279{clip-path:url(#SVGID_375_);}
	.st280{clip-path:url(#SVGID_376_);}
	.st281{clip-path:url(#SVGID_377_);}
	.st282{clip-path:url(#SVGID_378_);}
	.st283{clip-path:url(#SVGID_379_);}
	.st284{clip-path:url(#SVGID_381_);}
	.st285{fill:url(#SVGID_382_);}
	.st286{clip-path:url(#SVGID_384_);}
	.st287{clip-path:url(#SVGID_386_);}
	.st288{clip-path:url(#SVGID_387_);}
	.st289{clip-path:url(#SVGID_389_);}
	.st290{clip-path:url(#SVGID_390_);}
	.st291{clip-path:url(#SVGID_391_);}
	.st292{clip-path:url(#SVGID_392_);}
	.st293{clip-path:url(#SVGID_393_);}
	.st294{clip-path:url(#SVGID_394_);}
	.st295{clip-path:url(#SVGID_396_);}
	.st296{fill:url(#SVGID_397_);}
	.st297{clip-path:url(#SVGID_399_);}
	.st298{clip-path:url(#SVGID_401_);}
	.st299{clip-path:url(#SVGID_402_);}
	.st300{clip-path:url(#SVGID_404_);}
	.st301{clip-path:url(#SVGID_405_);}
	.st302{clip-path:url(#SVGID_406_);}
	.st303{clip-path:url(#SVGID_407_);}
	.st304{clip-path:url(#SVGID_408_);}
	.st305{clip-path:url(#SVGID_409_);}
	.st306{clip-path:url(#SVGID_411_);}
</style>

<g>

<g>

<path d="M131.71,55.47c-2.88-3.97-5.67-7.99-8.37-12.05l-5.45,7.86l-5.2-7.74l-5.07,7.86l-5.07-7.86l-5.2,7.86l-4.95-7.86    l-4.95,7.86l-5.2-7.86l-4.95,7.86l-5.2-7.86l-4.95,7.86l-5.2-7.74c-1.69,2.54-3.34,5.12-4.95,7.74l-5.2-7.86l-4.95,7.86    l-5.07-7.86l-5.2,7.86c-1.52-2.54-3.17-5.07-4.95-7.61l-6.34,11.67l-4.95-1.9L31.5,33.66l5.07,8.12l5.2-7.99l5.07,7.99l4.95-7.99    l5.2,7.99l4.95-7.99l5.2,7.86l4.95-7.86c1.69,2.71,3.42,5.37,5.2,7.99l4.95-7.99l4.95,7.99c1.86-2.62,3.59-5.28,5.2-7.99    c1.69,2.71,3.42,5.37,5.2,7.99c1.69-2.62,3.34-5.28,4.95-7.99l5.07,7.99l4.95-7.74l5.33,7.86l5.45-7.74l2.28,3.42    c6.43,9.22,10.02,14.5,10.78,15.86L131.71,55.47z M131.71,55.6c-2.88-3.97-5.67-7.99-8.37-12.05l-5.45,7.86l-5.2-7.74l-5.07,7.86    l-5.07-7.86l-5.2,7.86l-4.95-7.86l-4.95,7.86l-5.2-7.86l-4.95,7.86l-5.2-7.86l-4.95,7.86l-5.2-7.74    c-1.69,2.54-3.34,5.12-4.95,7.74l-5.2-7.86l-4.95,7.86l-5.07-7.86l-5.2,7.86c-1.52-2.54-3.17-5.07-4.95-7.61L25.29,55.6l-4.95-1.9    L31.5,33.78l5.07,8.12l5.2-7.99l5.07,7.99l4.95-7.99L57,41.9l4.95-7.99l5.2,7.86l4.95-7.86c1.69,2.71,3.42,5.37,5.2,7.99    l4.95-7.99l4.95,7.99c1.86-2.62,3.59-5.28,5.2-7.99c1.69,2.71,3.42,5.37,5.2,7.99c1.69-2.62,3.34-5.28,4.95-7.99l5.07,7.99    l4.95-7.74l5.33,7.86l5.45-7.74l2.28,3.42c6.43,9.22,10.02,14.5,10.78,15.86L131.71,55.6z M71.71,163.93    c-8.37,0-14.46-1.86-18.27-5.58c-4.48-4.4-9.26-6.6-14.33-6.6c-2.11,0-4.31,0.42-6.6,1.27c-7.36-0.68-11.04-3.93-11.04-9.77    c0-5.75,2.49-10.53,7.48-14.33c-3.89-5.58-5.83-10.02-5.83-13.32c0-1.94,0.72-3.51,2.16-4.69c0.42-0.25,0.89-0.38,1.4-0.38    c3.04,0,5.54,4.82,7.48,14.46c2.37-10.91,4.86-16.36,7.48-16.36h0.13c2.71,0.17,4.23,1.95,4.57,5.33v0.63    c0,3.3-2.33,7.36-6.98,12.18c6,2.79,11.67,6.34,17,10.65c5.16,3.47,11.04,5.2,17.63,5.2c4.82,0,10.02-0.93,15.6-2.79    c8.71-2.45,16.36-3.68,22.96-3.68c6.68,0,12.26,1.23,16.74,3.68c9.13,4.99,19.24,7.57,30.32,7.74c5.16,1.1,9.17,3.38,12.05,6.85    c0,2.37-5.25,3.72-15.73,4.06c-2.11,0.25-4.48,0.38-7.1,0.38c-5.67,0-12.56-0.63-20.68-1.9c-3.21-0.51-6.51-0.76-9.89-0.76    c-8.71,0-17.72,1.73-27.02,5.2C83.72,163.08,77.21,163.93,71.71,163.93z M71.71,164.05c-8.37,0-14.46-1.86-18.27-5.58    c-4.48-4.4-9.26-6.6-14.33-6.6c-2.11,0-4.31,0.42-6.6,1.27c-7.36-0.68-11.04-3.93-11.04-9.77c0-5.75,2.49-10.53,7.48-14.33    c-3.89-5.58-5.83-10.02-5.83-13.32c0-1.94,0.72-3.51,2.16-4.69c0.42-0.25,0.89-0.38,1.4-0.38c3.04,0,5.54,4.82,7.48,14.46    c2.37-10.91,4.86-16.36,7.48-16.36h0.13c2.71,0.17,4.23,1.95,4.57,5.33v0.63c0,3.3-2.33,7.36-6.98,12.18    c6,2.79,11.67,6.34,17,10.65c5.16,3.47,11.04,5.2,17.63,5.2c4.82,0,10.02-0.93,15.6-2.79c8.71-2.45,16.36-3.68,22.96-3.68    c6.68,0,12.26,1.23,16.74,3.68c9.13,4.99,19.24,7.57,30.32,7.74c5.16,1.1,9.17,3.38,12.05,6.85c0,2.37-5.25,3.72-15.73,4.06    c-2.11,0.25-4.48,0.38-7.1,0.38c-5.67,0-12.56-0.63-20.68-1.9c-3.21-0.51-6.51-0.76-9.89-0.76c-8.71,0-17.72,1.73-27.02,5.2    C83.72,163.21,77.21,164.05,71.71,164.05z M71.33,102.41c-2.45,0-4.65-0.38-6.6-1.14c-1.95-0.76-3.76-3.09-5.45-6.98    c-1.44-1.86-3.17-2.92-5.2-3.17H26.3v-5.71h27.78c2.03-0.34,3.76-1.44,5.2-3.3c1.69-3.89,3.51-6.22,5.45-6.98    c1.94-0.76,4.14-1.14,6.6-1.14c3.81,0.25,20.84,2.2,51.12,5.84v2.66l-9.01-0.51v12.3l9.01-0.51v2.66    C92.17,100.17,75.14,102.15,71.33,102.41z M71.33,102.53c-2.45,0-4.65-0.38-6.6-1.14c-1.95-0.76-3.76-3.09-5.45-6.98    c-1.44-1.86-3.17-2.92-5.2-3.17H26.3v-5.71h27.78c2.03-0.34,3.76-1.44,5.2-3.3c1.69-3.89,3.51-6.22,5.45-6.98    c1.94-0.76,4.14-1.14,6.6-1.14c3.81,0.25,20.84,2.2,51.12,5.84v2.66l-9.01-0.51v12.3l9.01-0.51v2.66    C92.17,100.29,75.14,102.28,71.33,102.53z M128.03,122.7v-8.12H59.41v8.12H128.03z M128.03,122.83v-8.12H59.41v8.12H128.03z     M70.57,96.7V79.45c-5.24,0.25-7.91,3.17-7.99,8.75C62.66,93.78,65.32,96.61,70.57,96.7z M70.57,96.82V79.57    c-5.24,0.25-7.91,3.17-7.99,8.75C62.66,93.91,65.32,96.74,70.57,96.82z M74.63,96.57l7.86-0.51V80.21l-7.86-0.38V96.57z     M74.63,96.7l7.86-0.51V80.33l-7.86-0.38V96.7z M86.8,95.81l9.89-0.51V80.97l-9.89-0.38V95.81z M86.8,95.94l9.89-0.51V81.1    l-9.89-0.38V95.94z M101.01,95.05l8.37-0.51V81.73l-8.37-0.51V95.05z M101.01,95.18l8.37-0.51V81.86l-8.37-0.51V95.18z     M167.22,125.87h-28.03c-0.51-0.08-0.89-0.42-1.14-1.01v-18.14c0.08-0.34,0.21-0.61,0.38-0.82c0.17-0.21,0.38-0.32,0.63-0.32    c3.04,0,5.07,1.95,6.09,5.83c0.51,1.69,0.87,3.19,1.08,4.5c0.21,1.31,0.49,2.14,0.82,2.47c0.34,0.34,0.97,0.68,1.9,1.01l0.25,0.25    c1.52,0.68,2.83,1.01,3.93,1.01c1.1,0,2.37-0.34,3.8-1.01l0.38-0.25c1.18-0.51,1.92-1.06,2.22-1.65c0.3-0.59,0.61-1.86,0.95-3.81    c0.42-2.71,1.23-4.86,2.41-6.47c1.01-1.27,2.37-1.9,4.06-1.9c0.51,0,0.82,0.17,0.95,0.51c0.13,0.34,0.19,6.47,0.19,18.39    C168.11,125.15,167.81,125.62,167.22,125.87z M167.22,126h-28.03c-0.51-0.08-0.89-0.42-1.14-1.01v-18.14    c0.08-0.34,0.21-0.61,0.38-0.82c0.17-0.21,0.38-0.32,0.63-0.32c3.04,0,5.07,1.95,6.09,5.83c0.51,1.69,0.87,3.19,1.08,4.5    c0.21,1.31,0.49,2.14,0.82,2.47c0.34,0.34,0.97,0.68,1.9,1.01l0.25,0.25c1.52,0.68,2.83,1.01,3.93,1.01c1.1,0,2.37-0.34,3.8-1.01    l0.38-0.25c1.18-0.51,1.92-1.06,2.22-1.65c0.3-0.59,0.61-1.86,0.95-3.8c0.42-2.71,1.23-4.86,2.41-6.47    c1.01-1.27,2.37-1.9,4.06-1.9c0.51,0,0.82,0.17,0.95,0.51c0.13,0.34,0.19,6.47,0.19,18.39C168.11,125.28,167.81,125.75,167.22,126    z M152.38,114.08c-1.35,0-2.79-0.72-4.31-2.16c-1.86-1.94-2.79-5.46-2.79-10.53c0-4.82,0.55-12.89,1.65-24.23    c1.18-12.94,2.54-25.2,4.06-36.79h0.13c0-0.08-0.02-0.21-0.06-0.38c-0.04-0.17,0-0.36,0.13-0.57c0.13-0.21,0.4-0.4,0.83-0.57    c0.34,0,0.63,0.04,0.89,0.13c0.42,0.42,0.63,0.76,0.63,1.01v0.38c1.61,11.59,3.04,23.85,4.31,36.79    c1.01,12.35,1.52,20.21,1.52,23.59c0,5.5-0.93,9.22-2.79,11.16C154.96,113.36,153.57,114.08,152.38,114.08z M152.38,114.2    c-1.35,0-2.79-0.72-4.31-2.16c-1.86-1.94-2.79-5.45-2.79-10.53c0-4.82,0.55-12.89,1.65-24.23c1.18-12.94,2.54-25.2,4.06-36.79    h0.13c0-0.08-0.02-0.21-0.06-0.38c-0.04-0.17,0-0.36,0.13-0.57c0.13-0.21,0.4-0.4,0.83-0.57c0.34,0,0.63,0.04,0.89,0.13    c0.42,0.42,0.63,0.76,0.63,1.02v0.38c1.61,11.59,3.04,23.85,4.31,36.79c1.01,12.35,1.52,20.21,1.52,23.59    c0,5.5-0.93,9.22-2.79,11.16C154.96,113.48,153.57,114.2,152.38,114.2z"/>

</g>

</g>

</svg>